<svg width="568" height="500" viewBox="0 0 568 500" fill="none" xmlns="http://www.w3.org/2000/svg">
<g clip-path="url(#clip0)">
<path d="M568 259.46C568.064 292.966 559.822 326.111 543.806 356.75C543.134 358.033 542.454 359.311 541.753 360.583C541.653 360.781 541.54 360.978 541.434 361.176C541.165 361.662 540.896 362.154 540.619 362.64C540.421 362.994 540.223 363.342 540.017 363.696C539.529 364.56 539.033 365.419 538.53 366.275C537.978 367.217 537.418 368.157 536.852 369.094C536.285 370.03 535.711 370.964 535.131 371.896C534.621 372.706 534.108 373.513 533.594 374.319C532.928 375.357 532.251 376.395 531.561 377.432C530.966 378.32 530.369 379.202 529.769 380.078C529.125 381.014 528.473 381.949 527.815 382.885L527.751 382.975C527.609 383.179 527.468 383.383 527.319 383.587C527.184 383.773 527.057 383.953 526.922 384.139C526.788 384.325 526.66 384.505 526.526 384.685V384.691C526.094 385.29 525.662 385.878 525.23 386.472L525.223 386.478C524.252 387.798 523.261 389.112 522.262 390.413C520.407 392.837 518.501 395.224 516.547 397.575C516.547 397.581 516.54 397.581 516.533 397.587C515.364 399.003 514.167 400.407 512.963 401.798C512.191 402.686 511.412 403.57 510.626 404.45C509.84 405.331 509.047 406.205 508.246 407.071C508.069 407.269 507.885 407.467 507.701 407.665C506.681 408.769 505.647 409.872 504.599 410.958C504.372 411.198 504.146 411.432 503.926 411.666C503.579 412.02 503.239 412.374 502.899 412.722C502.786 412.842 502.673 412.956 502.552 413.076C501.971 413.663 501.391 414.251 500.796 414.839V414.845C500.222 415.421 499.641 415.997 499.054 416.573C498.926 416.699 498.799 416.825 498.664 416.951C498.473 417.143 498.274 417.328 498.076 417.52C497.587 418.006 497.085 418.486 496.575 418.966C496.568 418.972 496.568 418.978 496.561 418.984L496.539 419.002V419.008C481.314 433.557 464.066 446.491 445.171 457.53C445.108 457.572 445.042 457.61 444.973 457.645C444.739 457.788 444.506 457.92 444.272 458.058C442.579 459.042 440.873 460.014 439.152 460.962C438.309 461.429 437.466 461.891 436.616 462.347V462.353C436.609 462.353 436.609 462.353 436.602 462.359H436.588L436.574 462.371L436.531 462.389C436.51 462.401 436.496 462.407 436.474 462.419C435.823 462.773 435.178 463.121 434.52 463.469C434.321 463.583 434.123 463.685 433.925 463.787C433.578 463.973 433.224 464.159 432.87 464.345C432.523 464.525 432.168 464.711 431.814 464.891C431.368 465.119 430.922 465.352 430.476 465.574C429.505 466.072 428.533 466.564 427.558 467.05C427.204 467.23 426.843 467.404 426.481 467.584C426.127 467.758 425.766 467.932 425.405 468.106C425.4 468.112 425.394 468.117 425.386 468.122C425.379 468.126 425.371 468.129 425.362 468.13L425.348 468.136L425.334 468.148H425.327C424.335 468.628 423.351 469.108 422.352 469.575L422.345 469.581C421.545 469.959 420.745 470.331 419.937 470.703C418.025 471.585 416.101 472.451 414.165 473.3C412.82 473.894 411.467 474.47 410.107 475.04C409.286 475.388 408.457 475.73 407.628 476.072C406.941 476.354 406.247 476.636 405.56 476.912C405.369 476.99 405.185 477.068 404.994 477.14C404.682 477.266 404.363 477.392 404.052 477.511C403.79 477.613 403.535 477.715 403.273 477.817C402.649 478.069 402.019 478.309 401.396 478.549C400.695 478.819 400.001 479.083 399.299 479.347C396.665 480.343 394.002 481.303 391.332 482.226C381.793 485.534 372.045 488.39 362.132 490.78C361.671 490.894 361.204 491.008 360.736 491.116C356.494 492.124 352.221 493.046 347.917 493.881C340.403 495.345 332.82 496.547 325.169 497.487C325.155 497.487 325.134 497.493 325.12 497.493C324.206 497.606 323.285 497.715 322.371 497.822C322.294 497.834 322.209 497.846 322.124 497.852C322.117 497.858 322.11 497.858 322.095 497.852H322.088C321.076 497.966 320.063 498.08 319.043 498.188C318.972 498.2 318.901 498.206 318.83 498.212C317.882 498.308 316.925 498.404 315.969 498.494C314.942 498.59 313.915 498.68 312.881 498.77H312.874C311.302 498.902 309.73 499.028 308.157 499.136C308.129 499.136 308.101 499.142 308.072 499.142C307.449 499.19 306.826 499.226 306.203 499.268H306.196C298.866 499.76 291.467 500.004 284 500C275.891 500 267.864 499.714 259.92 499.142C259.892 499.142 259.863 499.136 259.835 499.136C258.142 499.016 256.452 498.884 254.764 498.74C254.318 498.704 253.879 498.662 253.433 498.626C253.348 498.62 253.263 498.614 253.178 498.602C253.043 498.59 252.909 498.578 252.767 498.566C252.696 498.56 252.618 498.554 252.547 498.542C251.96 498.488 251.372 498.434 250.777 498.374C250.118 498.308 249.452 498.242 248.794 498.17C248.135 498.105 247.469 498.032 246.811 497.955C246.669 497.943 246.52 497.931 246.379 497.907C245.897 497.858 245.416 497.805 244.941 497.745C244.707 497.721 244.481 497.691 244.254 497.661C243.794 497.607 243.341 497.553 242.88 497.493C242.866 497.493 242.845 497.487 242.831 497.487C228.368 495.718 214.091 492.992 200.131 489.335H200.124C199.367 489.137 198.609 488.933 197.851 488.729C197.624 488.675 197.398 488.615 197.171 488.549C195.202 488.015 193.245 487.463 191.3 486.893C188.616 486.114 185.95 485.298 183.304 484.446C182.582 484.212 181.866 483.978 181.144 483.744C179.706 483.264 178.275 482.784 176.852 482.292C174.423 481.453 172.01 480.587 169.614 479.695H169.607V479.689C167.716 478.981 165.832 478.261 163.962 477.512C163.622 477.38 163.282 477.248 162.942 477.11C162.877 477.093 162.815 477.069 162.758 477.038C162.751 477.038 162.751 477.032 162.744 477.032C162.255 476.84 161.767 476.642 161.278 476.444L161.264 476.438C158.764 475.424 156.285 474.378 153.827 473.301C150.782 471.969 147.763 470.589 144.769 469.162C142.29 467.98 139.835 466.766 137.404 465.521C134.521 464.045 131.669 462.525 128.848 460.962C127.97 460.476 127.092 459.984 126.214 459.486C125.42 459.036 124.634 458.586 123.848 458.13C121.072 456.523 118.331 454.873 115.625 453.182C112.828 451.436 110.071 449.646 107.353 447.813C103.812 445.425 100.342 442.97 96.9424 440.447C90.6037 435.756 84.5248 430.829 78.7055 425.666C78.5214 425.504 78.3372 425.343 78.1531 425.175C77.5724 424.659 76.9987 424.143 76.4251 423.621C75.5894 422.865 74.7607 422.097 73.9392 421.33C72.5794 420.076 71.2432 418.808 69.9306 417.526H69.9235V417.52C69.1232 416.747 68.3442 415.979 67.551 415.199V415.193C67.4376 415.085 67.3314 414.977 67.2251 414.869C66.7223 414.371 66.2337 413.879 65.745 413.376V413.37C65.0793 412.704 64.4276 412.038 63.7903 411.366C63.6486 411.222 63.514 411.084 63.3795 410.94H63.3724V410.934C62.8483 410.394 62.3313 409.848 61.8214 409.302C61.5593 409.033 61.3044 408.757 61.0494 408.481H61.0423V408.475C59.4984 406.825 57.9852 405.16 56.5026 403.478V403.472C56.0918 403.01 55.6882 402.548 55.2916 402.08H55.2845C53.3864 399.909 51.5379 397.711 49.739 395.488V395.482C49.0591 394.648 48.3863 393.808 47.7206 392.963C47.0548 392.117 46.3961 391.269 45.7446 390.419H45.7376C45.0647 389.543 44.3989 388.664 43.7403 387.78C43.7049 387.732 43.6695 387.69 43.6412 387.648C42.9896 386.778 42.3474 385.902 41.7148 385.021C41.2048 384.319 40.702 383.623 40.2133 382.921C39.8734 382.447 39.5405 381.979 39.2147 381.499C39.0943 381.337 38.9881 381.176 38.8819 381.02C38.1312 379.934 37.3946 378.848 36.658 377.756C35.8011 376.473 34.9512 375.177 34.1225 373.881C33.7826 373.347 33.4426 372.808 33.1098 372.268C32.9894 372.094 32.8831 371.92 32.7769 371.74C32.3803 371.104 31.9837 370.468 31.5942 369.826C31.2047 369.19 30.8151 368.549 30.4327 367.907C30.0502 367.265 29.6678 366.623 29.2924 365.975C29.0091 365.489 28.7259 364.997 28.4496 364.512C28.4209 364.471 28.395 364.429 28.3718 364.386C28.2442 364.158 28.1096 363.936 27.9893 363.708C27.961 363.673 27.9395 363.634 27.9255 363.594C27.6352 363.09 27.3519 362.592 27.0756 362.088C26.7074 361.44 26.3533 360.786 25.9991 360.133C25.7442 359.677 25.5034 359.215 25.2556 358.753C24.9014 358.105 24.5544 357.451 24.2144 356.791C23.8532 356.114 23.5062 355.43 23.1591 354.746C23.0671 354.572 22.9821 354.404 22.8972 354.23C22.7342 353.918 22.5784 353.606 22.4227 353.294C22.0048 352.467 21.594 351.627 21.1903 350.793C20.73 349.851 20.2815 348.908 19.8447 347.962C19.4268 347.08 19.0207 346.196 18.6265 345.31L18.4778 344.986V344.98C12.324 331.282 7.66791 317.134 4.56811 302.715V302.709C2.80062 294.476 1.54297 286.171 0.800324 277.827C0.757873 277.371 0.722427 276.915 0.687016 276.459C0.219646 270.815 -0.00934889 265.148 3.27819e-05 259.46C3.27819e-05 256.934 0.0472459 254.421 0.141676 251.919C1.97802 199.624 23.9881 149.277 62.8058 108.579C64.5127 106.785 66.2502 105.014 68.0184 103.264C69.9589 101.345 71.9325 99.4512 73.9392 97.5837C75.3273 96.288 76.7319 95.0083 78.1531 93.7445C78.1797 93.7191 78.2081 93.6951 78.2381 93.6726C78.3868 93.5347 78.5426 93.3967 78.7056 93.2586C87.374 85.5696 96.6369 78.3775 106.433 71.73C107.552 70.9622 108.671 70.2124 109.804 69.4746C110.81 68.8088 111.815 68.1489 112.828 67.5071C114.004 66.7513 115.186 66.0054 116.376 65.2696C122.573 61.4246 128.954 57.7935 135.52 54.3764C138.26 52.9488 141.032 51.5612 143.834 50.2134C144.854 49.7155 145.888 49.2296 146.922 48.7437C148.324 48.0899 149.727 47.4421 151.143 46.8122C193.235 27.9793 240.234 18.3961 287.834 18.9411C335.433 19.486 382.109 30.1417 423.585 49.9314C423.783 50.0214 423.981 50.1174 424.172 50.2134C425.391 50.8013 426.602 51.3891 427.806 51.995C429.378 52.7748 430.938 53.5686 432.487 54.3764C440.306 58.4494 447.87 62.8263 455.179 67.5071C456.312 68.233 457.445 68.9647 458.564 69.7086C459.577 70.3744 460.583 71.0523 461.581 71.7301C462.126 72.102 462.679 72.4799 463.224 72.8578C475.183 81.1048 486.332 90.1603 496.561 99.9351L496.575 99.9471C496.731 100.097 496.886 100.241 497.035 100.391C497.524 100.859 498.012 101.333 498.494 101.801C498.558 101.861 498.621 101.927 498.685 101.987C499.393 102.676 500.097 103.372 500.796 104.074C509.31 112.588 517.117 121.591 524.16 131.019C526.781 134.51 529.288 138.066 531.682 141.685C555.567 177.637 568.078 218.207 568 259.46V259.46Z" fill="#3F3D56"/>
<path d="M483.798 14.8058L500.795 404.522V404.529C500.222 405.2 499.641 405.871 499.053 406.541C498.734 406.912 498.409 407.275 498.076 407.645C497.587 408.211 497.084 408.77 496.574 409.329C496.567 409.336 496.567 409.343 496.56 409.35L496.539 409.371V409.378C481.631 426.044 464.382 441.11 445.171 454.243V454.397L444.973 454.376C444.739 454.543 444.505 454.697 444.272 454.858C442.579 456.003 440.872 457.135 439.151 458.239C438.308 458.784 437.463 459.322 436.616 459.853V459.86C436.609 459.86 436.609 459.86 436.601 459.867H436.587L436.573 459.881L436.531 459.902C436.509 459.916 436.495 459.923 436.474 459.937C435.822 460.349 435.178 460.754 434.519 461.159C434.321 461.292 434.123 461.411 433.924 461.529C433.577 461.746 433.223 461.963 432.869 462.179C432.522 462.389 432.168 462.605 431.814 462.815C430.404 463.667 428.981 464.506 427.557 465.33C427.203 465.539 426.842 465.742 426.481 465.952C426.127 466.154 425.766 466.357 425.404 466.56V466.58L425.362 466.587L425.348 466.594L425.334 466.608H425.326C424.335 467.167 423.35 467.726 422.352 468.271L422.345 468.278C421.544 468.718 420.744 469.151 419.937 469.584C418.025 470.611 416.098 471.625 414.165 472.61C412.819 473.301 411.466 473.972 410.107 474.635C409.285 475.041 408.456 475.439 407.628 475.837C406.941 476.166 406.247 476.494 405.56 476.815C405.369 476.906 405.184 476.997 404.993 477.081C404.682 477.227 404.363 477.374 404.051 477.514H163.962C163.622 477.36 163.282 477.206 162.942 477.046C162.876 477.026 162.813 476.998 162.758 476.962C162.751 476.962 162.751 476.955 162.744 476.955C162.255 476.731 161.766 476.501 161.277 476.27L161.263 476.263C158.763 475.083 156.284 473.865 153.827 472.61C148.253 469.773 142.779 466.753 137.403 463.548C134.521 461.83 131.669 460.06 128.848 458.239C127.969 457.673 127.091 457.1 126.213 456.52C125.42 455.996 124.634 455.472 123.848 454.941C121.071 453.069 118.331 451.148 115.625 449.178C112.828 447.145 110.07 445.061 107.353 442.925C103.812 440.145 100.341 437.285 96.942 434.346C90.6034 428.883 84.5244 423.145 78.7051 417.132C78.521 416.944 78.3368 416.755 78.1527 416.559C76.7292 415.085 75.3245 413.593 73.9387 412.081L88.1033 14.8057C88.0902 12.393 88.6115 9.99959 89.6402 7.74963C91.7932 3.13885 95.993 0.0020752 100.816 0.0020752H471.085C475.972 0.0020752 480.214 3.21578 482.339 7.92431C482.41 8.07816 482.473 8.23183 482.537 8.38551C483.382 10.4501 483.808 12.6208 483.798 14.8058V14.8058Z" fill="#3F3D56"/>
<path d="M134.995 45.035C145.556 45.035 154.117 36.5899 154.117 26.1723C154.117 15.7548 145.556 7.30969 134.995 7.30969C124.434 7.30969 115.873 15.7548 115.873 26.1723C115.873 36.5899 124.434 45.035 134.995 45.035Z" fill="white"/>
<path d="M337.546 76.7259C305.307 83.9081 269.587 88.2771 233.267 89.4734C227.944 89.719 222.609 89.6882 217.29 89.3814C205.603 88.5488 195.591 85.4375 184.442 83.7372C179.081 82.9222 173.111 82.3262 167.715 81.4454C168.961 80.1351 170.231 78.8409 171.522 77.5628C183.158 78.3954 194.975 81.1211 206.751 82.3875C226.769 84.5435 249.197 82.1377 264.372 76.2044C271.735 73.3253 277.374 69.732 284.71 66.8398C285.708 66.406 286.789 66.1255 287.903 66.0116C290.226 65.832 292.264 66.6251 293.925 67.335C306.234 72.5979 324.104 76.8748 340.691 74.5217C341.928 75.3411 339.579 76.2745 337.546 76.7259Z" fill="white"/>
<path d="M331.305 142.469C331.512 142.436 331.72 142.411 331.928 142.381C331.055 141.923 330.234 141.399 329.474 140.815L331.305 142.469Z" fill="white"/>
<path d="M467.228 156.682C457.745 157.324 448.212 157.802 438.63 158.116C431.343 158.449 424.04 158.407 416.76 157.99C400.761 156.844 387.056 152.591 371.794 150.264C357.807 148.134 340.809 147.108 331.928 142.381C354.882 139.016 378.664 145.867 402.333 148.416C421.478 150.41 440.886 149.598 459.707 146.017C462.327 149.508 464.834 153.063 467.228 156.682Z" fill="white"/>
<path d="M269.694 301.041V295.295C269.692 293.1 268.701 290.988 266.921 289.391C265.142 287.795 262.709 286.835 260.121 286.708V264.268H257.869V286.683H247.734V300.99H199.873V465.523H305.73V333.297C305.73 325.038 301.995 317.093 295.293 311.094C288.59 305.095 279.43 301.497 269.694 301.041Z" fill="#2F2E41"/>
<path d="M231.405 324.358H217.328V333.896H231.405V324.358Z" fill="white"/>
<path d="M254.491 324.358H240.414V333.896H254.491V324.358Z" fill="white"/>
<path d="M277.577 324.358H263.5V333.896H277.577V324.358Z" fill="white"/>
<path d="M231.405 348.681H217.328V358.219H231.405V348.681Z" fill="white"/>
<path d="M254.491 348.681H240.414V358.219H254.491V348.681Z" fill="white"/>
<path d="M277.577 348.681H263.5V358.219H277.577V348.681Z" fill="white"/>
<path d="M231.405 373.003H217.328V382.541H231.405V373.003Z" fill="white"/>
<path d="M254.491 373.003H240.414V382.541H254.491V373.003Z" fill="white"/>
<path d="M277.577 373.003H263.5V382.541H277.577V373.003Z" fill="white"/>
<path d="M231.405 397.325H217.328V406.863H231.405V397.325Z" fill="white"/>
<path d="M254.491 397.325H240.414V406.863H254.491V397.325Z" fill="white"/>
<path d="M277.577 397.325H263.5V406.863H277.577V397.325Z" fill="white"/>
<path d="M231.405 421.647H217.328V431.185H231.405V421.647Z" fill="white"/>
<path d="M254.491 421.647H240.414V431.185H254.491V421.647Z" fill="white"/>
<path d="M277.577 421.647H263.5V431.185H277.577V421.647Z" fill="white"/>
<path d="M231.405 445.969H217.328V455.508H231.405V445.969Z" fill="white"/>
<path d="M254.491 445.969H240.414V455.508H254.491V445.969Z" fill="white"/>
<path d="M277.577 445.969H263.5V455.508H277.577V445.969Z" fill="white"/>
<path d="M202.794 253.173V465.521H137.404C134.521 464.045 131.669 462.525 128.848 460.962C127.97 460.476 127.092 459.984 126.214 459.486C125.42 459.036 124.634 458.586 123.848 458.13C121.072 456.523 118.331 454.873 115.626 453.182C112.828 451.436 110.071 449.646 107.354 447.813C103.812 445.426 100.342 442.97 96.9425 440.447V220.865H115.803V195.354H134.946V171.03H137.198V195.354H151.242C153.94 195.354 156.526 196.261 158.434 197.877C160.341 199.492 161.412 201.683 161.413 203.967V220.865H164.649C172.874 220.865 180.878 223.116 187.469 227.282C194.061 231.448 198.887 237.306 201.229 243.983C201.637 245.159 201.968 246.352 202.221 247.559C202.602 249.413 202.794 251.291 202.794 253.173V253.173Z" fill="#2F2E41"/>
<path d="M172.672 240.184H127.064V243.046H172.672V240.184Z" fill="white"/>
<path d="M172.672 257.83H127.064V260.691H172.672V257.83Z" fill="white"/>
<path d="M172.672 275.475H127.064V278.337H172.672V275.475Z" fill="white"/>
<path d="M172.672 293.121H127.064V295.982H172.672V293.121Z" fill="white"/>
<path d="M172.672 310.766H127.064V313.628H172.672V310.766Z" fill="white"/>
<path d="M172.672 328.412H127.064V331.273H172.672V328.412Z" fill="white"/>
<path d="M172.672 346.057H127.064V348.919H172.672V346.057Z" fill="white"/>
<path d="M172.672 363.703H127.064V366.564H172.672V363.703Z" fill="white"/>
<path d="M172.672 381.349H127.064V384.21H172.672V381.349Z" fill="white"/>
<path d="M172.672 398.994H127.064V401.856H172.672V398.994Z" fill="white"/>
<path d="M172.672 416.64H127.064V419.501H172.672V416.64Z" fill="white"/>
<path d="M172.672 434.285H127.064V437.147H172.672V434.285Z" fill="white"/>
<path d="M145.645 200.601H131.568V210.139H145.645V200.601Z" fill="white"/>
<path d="M482.538 8.38592C482.474 8.22981 482.41 8.07985 482.339 7.92404C480.215 3.21515 475.972 0 471.086 0H100.817C95.9935 0 91.7937 3.13722 89.6408 7.75003C88.6125 9.99944 88.0912 12.3922 88.1039 14.8043L73.9393 421.33C74.7609 422.097 75.5895 422.865 76.4252 423.621C76.9988 424.143 77.5725 424.659 78.1532 425.175L92.3178 14.8043C92.3143 13.6413 92.4953 12.4833 92.8561 11.3612C92.8574 11.3426 92.8622 11.3244 92.8702 11.3071C94.0884 7.57604 97.1904 4.91876 100.817 4.91876H471.086C471.954 4.91974 472.812 5.07292 473.607 5.36865C476.921 6.56835 479.365 10.0595 479.563 14.2523C479.57 14.4383 479.577 14.6183 479.577 14.8043L496.575 409.327C497.085 408.769 497.588 408.211 498.076 407.647C498.26 407.443 498.437 407.239 498.615 407.041C498.763 406.873 498.912 406.711 499.054 406.543C499.641 405.871 500.222 405.2 500.796 404.528V404.522L483.798 14.8043C483.808 12.62 483.382 10.4499 482.538 8.38592V8.38592ZM153.827 473.301C156.285 474.38 158.764 475.426 161.264 476.438L161.278 476.444C161.767 476.642 162.255 476.84 162.744 477.032C162.751 477.032 162.751 477.038 162.758 477.038C162.815 477.069 162.877 477.093 162.942 477.11C163.282 477.248 163.622 477.38 163.962 477.512H404.052C404.363 477.392 404.682 477.266 404.994 477.14C405.185 477.068 405.369 476.99 405.56 476.912C406.247 476.636 406.941 476.354 407.628 476.072C408.457 475.73 409.286 475.388 410.107 475.04C411.467 474.47 412.82 473.895 414.165 473.301H153.827Z" fill="#2F2E41"/>
<path d="M481.685 50.2119H90.2104V54.375H481.685V50.2119Z" fill="#2F2E41"/>
<path d="M487.077 101.799H86.2199V105.962H487.077V101.799Z" fill="#2F2E41"/>
<path d="M151.142 182.583H146.922L161.087 1.86914H165.307L151.142 182.583Z" fill="#2F2E41"/>
<path d="M427.807 183.782H423.587L406.589 1.86914H410.81L427.807 183.782Z" fill="#2F2E41"/>
<path d="M489.202 177.71H86.9282V189.625H489.202V177.71Z" fill="#2F2E41"/>
<path d="M288.791 171.136H293.011C294.027 171.136 295.033 171.305 295.972 171.635C296.911 171.964 297.764 172.447 298.482 173.055C299.2 173.664 299.77 174.386 300.159 175.181C300.548 175.976 300.748 176.829 300.748 177.689V177.689H281.053C281.053 175.951 281.868 174.284 283.319 173.055C284.77 171.826 286.739 171.136 288.791 171.136V171.136Z" fill="#2F2E41"/>
<path d="M145.711 459.114C139.337 464.513 139.833 466.762 137.404 465.521C134.521 464.045 131.669 462.525 128.848 460.962C127.97 460.476 127.092 459.984 126.214 459.486C125.42 459.036 124.634 458.586 123.848 458.13C121.072 456.523 118.331 454.873 115.626 453.182C112.828 451.436 110.071 449.646 107.353 447.813C103.812 445.425 100.342 442.97 96.9425 440.447C90.6038 435.756 84.5248 430.829 78.7056 425.666C78.5214 425.504 78.3373 425.342 78.1531 425.174C77.5724 424.659 76.9987 424.143 76.4251 423.621L79.3076 414.803L82.8488 286.285L83.0612 247.559L83.0754 243.983L86.2199 187.981L86.2412 184.406L88.0684 108.903L88.0826 105.964L88.1109 101.801L78.2381 93.6727L92.6152 54.3764L92.6365 50.2135L92.8559 11.3611L92.8701 8.18791C100.37 2.40527 110.987 1.27163 123.968 2.29133C124.613 2.34537 125.272 2.39941 125.93 2.45929L126.107 4.91873L126.433 9.30354V9.30969L128.983 44.0771V44.0891L129.436 50.2136L129.74 54.3765L130.541 65.2697L119.053 101.801L119.358 105.964L121.575 136.148L121.879 140.311L122.509 148.901L125.116 184.406L125.378 187.981L125.916 195.354L126.589 204.471L126.667 205.533L126.971 209.696L127.85 221.657L128.09 224.992L129.202 240.186L129.351 242.214L129.415 243.048L129.486 243.983L129.599 245.543L129.748 247.559L130.279 254.793L130.498 257.828L130.711 260.689L130.86 262.759L131.107 266.094L131.299 268.673L131.795 275.476L132.007 278.337L132.368 283.31L132.588 286.285L132.616 286.645L133.09 293.123L133.303 295.985L133.459 298.198L133.877 303.867L134.124 307.196L134.387 310.765L134.592 313.626L135.385 324.412L135.626 327.747L135.676 328.413L135.888 331.274L136.894 344.962L136.972 346.06L137.135 348.298L137.177 348.922L138.268 363.702L138.402 365.513L138.48 366.563L138.643 368.849L139.564 381.349L139.776 384.211L139.911 386.064L140.152 389.399L140.853 398.997L141.065 401.858L141.412 406.621L141.66 409.95L142.149 416.639L142.361 419.5L142.921 427.166L143.169 430.495L143.324 434.286L143.445 437.147L145.711 459.114Z" fill="#CCCCCC"/>
<path d="M498.664 416.951C498.473 417.143 498.275 417.328 498.076 417.52C497.588 418.006 497.085 418.486 496.575 418.966C496.568 418.972 496.568 418.978 496.561 418.984L496.539 419.002V419.008C481.314 433.557 464.066 446.492 445.172 457.53C445.108 457.572 445.042 457.61 444.973 457.645C444.74 457.789 444.506 457.92 444.272 458.058C442.579 459.042 440.873 460.014 439.152 460.962C438.309 461.43 437.466 461.891 436.616 462.347V462.353C436.609 462.353 436.609 462.353 436.602 462.359H436.588L436.574 462.371L436.531 462.389C436.51 462.401 436.496 462.407 436.475 462.419C435.823 462.773 435.178 463.121 434.52 463.469C434.322 463.583 434.123 463.685 433.925 463.787C433.578 463.973 433.224 464.159 432.87 464.345C432.523 464.525 432.169 464.711 431.814 464.891C431.368 465.119 430.922 465.353 430.476 465.575L430.504 463.595L430.547 460.962L430.752 448.857L431.46 439.187L435.66 381.955L436.326 372.898L436.475 370.858L438.366 345.106L439.01 336.265L440.476 316.35L441.135 307.292L441.779 298.54L441.807 298.198L441.864 297.382L441.9 296.884V296.878L442.65 286.717L442.679 286.285L443.21 279.099V279.087L443.968 268.673L444.449 262.135L444.987 254.793L445.419 248.908L445.519 247.559L445.781 243.983L445.795 243.84L447.424 221.585L447.849 215.785V215.778L448.295 209.696L448.599 205.533L449.23 197.027L449.895 187.981L450.157 184.406L451.085 171.713V171.707L451.602 164.641L452.119 157.563L452.884 147.209L453.387 140.311L453.692 136.148L455.901 105.964L456 104.656L456.213 101.801L456.928 92.0352L441.567 69.7087L442.693 54.3765L442.997 50.2136L446.227 6.23242L446.326 4.91877L446.503 2.45933C460.37 1.1697 471.681 2.11737 479.563 8.18791L479.783 50.2135L479.804 54.3765L484.287 100.391L484.294 101.801L484.315 105.964L486.136 184.406L486.157 187.981L489.273 243.983L489.294 247.559L490.909 286.285L490.973 298.198L498.615 407.041L498.664 416.951Z" fill="#CCCCCC"/>
<path d="M439.152 460.962C438.309 461.43 437.466 461.891 436.616 462.347V462.353C436.609 462.353 436.609 462.353 436.602 462.359H436.588L436.574 462.371L436.531 462.389C436.51 462.401 436.496 462.407 436.474 462.419C435.823 462.773 435.178 463.121 434.52 463.469C434.321 463.583 434.123 463.685 433.925 463.787C433.578 463.973 433.224 464.159 432.87 464.345C432.523 464.525 432.168 464.711 431.814 464.891C431.368 465.119 430.922 465.353 430.476 465.575C429.506 466.073 428.533 466.564 427.558 467.05C427.204 467.23 426.843 467.404 426.481 467.584C426.127 467.758 425.766 467.932 425.405 468.106V468.124L425.362 468.13L425.348 468.136L425.334 468.148H425.327C424.335 468.628 423.351 469.108 422.352 469.576L422.345 469.582C421.545 469.959 420.745 470.331 419.937 470.703C418.025 471.585 416.101 472.451 414.165 473.301C412.82 473.895 411.467 474.47 410.107 475.04C409.286 475.388 408.457 475.73 407.628 476.072C406.941 476.354 406.247 476.636 405.56 476.912C405.369 476.99 405.185 477.068 404.994 477.14C404.682 477.266 404.363 477.392 404.052 477.512C403.79 477.613 403.535 477.716 403.273 477.817C402.649 478.069 402.019 478.309 401.396 478.549C400.695 478.819 400.001 479.083 399.299 479.347C396.665 480.343 394.002 481.303 391.332 482.226C381.793 485.534 372.045 488.39 362.132 490.78C361.671 490.894 361.204 491.008 360.736 491.116C356.494 492.124 352.221 493.046 347.917 493.881C340.403 495.345 332.82 496.547 325.169 497.487C325.155 497.487 325.134 497.493 325.12 497.493C324.206 497.607 323.285 497.715 322.372 497.823C322.294 497.835 322.209 497.847 322.124 497.853C322.117 497.858 322.11 497.858 322.095 497.853H322.088C321.076 497.966 320.063 498.08 319.043 498.188C318.972 498.2 318.901 498.206 318.83 498.212C317.882 498.308 316.925 498.404 315.969 498.494C314.942 498.59 313.915 498.68 312.881 498.77H312.874C311.302 498.902 309.73 499.028 308.158 499.136C308.129 499.136 308.101 499.142 308.073 499.142C307.449 499.19 306.826 499.226 306.203 499.268H306.196C298.866 499.76 291.467 500.004 284 500C275.891 500 267.864 499.714 259.92 499.142C259.892 499.142 259.863 499.136 259.835 499.136C258.142 499.016 256.452 498.884 254.764 498.74C254.318 498.704 253.879 498.662 253.433 498.626C253.348 498.62 253.263 498.614 253.178 498.602C253.043 498.59 252.909 498.578 252.767 498.566C252.696 498.56 252.618 498.554 252.547 498.542C251.96 498.489 251.372 498.434 250.777 498.374C250.118 498.308 249.452 498.243 248.794 498.17C248.135 498.105 247.469 498.033 246.811 497.955C246.669 497.943 246.521 497.931 246.379 497.907C245.897 497.859 245.416 497.805 244.941 497.745C244.707 497.721 244.481 497.691 244.254 497.661C243.794 497.607 243.341 497.553 242.88 497.493C242.866 497.493 242.845 497.487 242.831 497.487C228.368 495.718 214.091 492.992 200.132 489.335H200.124C199.367 489.137 198.609 488.933 197.851 488.729C197.624 488.675 197.398 488.615 197.171 488.549C195.202 488.015 193.245 487.463 191.3 486.893C188.616 486.114 185.95 485.298 183.304 484.446C182.582 484.212 181.866 483.978 181.144 483.744C179.706 483.264 178.276 482.784 176.852 482.293C174.423 481.453 172.01 480.587 169.614 479.695H169.607V479.689C167.716 478.981 165.832 478.261 163.962 477.512C163.622 477.38 163.282 477.248 162.942 477.11C162.877 477.093 162.815 477.069 162.758 477.038C162.751 477.038 162.751 477.032 162.744 477.032C162.255 476.84 161.767 476.642 161.278 476.444L161.264 476.438C158.764 475.424 156.285 474.378 153.827 473.301C150.782 471.969 147.763 470.589 144.769 469.162C142.29 467.98 139.835 466.766 137.404 465.521C134.521 464.045 131.669 462.525 128.848 460.962H439.152Z" fill="#2F2E41"/>
<path d="M182.446 32.4599C183.229 32.4599 183.863 31.8343 183.863 31.0626C183.863 30.291 183.229 29.6654 182.446 29.6654C181.664 29.6654 181.03 30.291 181.03 31.0626C181.03 31.8343 181.664 32.4599 182.446 32.4599Z" fill="white"/>
<path d="M268.509 34.1927C269.291 34.1927 269.925 33.5671 269.925 32.7954C269.925 32.0238 269.291 31.3982 268.509 31.3982C267.727 31.3982 267.092 32.0238 267.092 32.7954C267.092 33.5671 267.727 34.1927 268.509 34.1927Z" fill="white"/>
<path d="M321.626 35.5899C322.408 35.5899 323.042 34.9643 323.042 34.1926C323.042 33.421 322.408 32.7954 321.626 32.7954C320.844 32.7954 320.21 33.421 320.21 34.1926C320.21 34.9643 320.844 35.5899 321.626 35.5899Z" fill="white"/>
<path d="M396.332 212.35C397.114 212.35 397.748 211.812 397.748 211.15C397.748 210.487 397.114 209.95 396.332 209.95C395.549 209.95 394.915 210.487 394.915 211.15C394.915 211.812 395.549 212.35 396.332 212.35Z" fill="white"/>
<path d="M310.294 144.854C311.077 144.854 311.711 144.317 311.711 143.655C311.711 142.992 311.077 142.455 310.294 142.455C309.512 142.455 308.878 142.992 308.878 143.655C308.878 144.317 309.512 144.854 310.294 144.854Z" fill="white"/>
<path d="M239.105 206.351C239.887 206.351 240.521 205.814 240.521 205.151C240.521 204.489 239.887 203.952 239.105 203.952C238.322 203.952 237.688 204.489 237.688 205.151C237.688 205.814 238.322 206.351 239.105 206.351Z" fill="white"/>
<path d="M227.065 143.367C227.847 143.367 228.481 142.829 228.481 142.167C228.481 141.504 227.847 140.967 227.065 140.967C226.283 140.967 225.648 141.504 225.648 142.167C225.648 142.829 226.283 143.367 227.065 143.367Z" fill="white"/>
<path d="M132.162 130.77C132.944 130.77 133.579 130.233 133.579 129.57C133.579 128.907 132.944 128.37 132.162 128.37C131.38 128.37 130.746 128.907 130.746 129.57C130.746 130.233 131.38 130.77 132.162 130.77Z" fill="white"/>
<path d="M455.915 375.718L454.499 375.751L456.624 441.689L458.04 441.656L455.915 375.718Z" fill="#B3B3B3"/>
<path d="M477.87 117.19L476.454 117.208L478.579 238.331L479.995 238.314L477.87 117.19Z" fill="#B3B3B3"/>
<path d="M429.214 242.342H409.217C408.766 242.341 408.319 242.424 407.91 242.584C407.5 242.745 407.137 242.98 406.846 243.272C406.568 243.226 406.284 243.203 406.001 243.203C404.743 243.203 403.536 243.626 402.647 244.38C401.757 245.133 401.257 246.155 401.257 247.22C401.257 248.286 401.757 249.308 402.647 250.061C403.536 250.815 404.743 251.238 406.001 251.238C406.717 251.238 407.423 251.099 408.066 250.831L408.4 254.303L409.725 268.024C409.788 268.195 409.873 268.36 409.977 268.516C410.245 268.933 410.641 269.281 411.122 269.523C411.604 269.765 412.154 269.894 412.714 269.894H425.718C426.278 269.893 426.828 269.765 427.31 269.523C427.793 269.28 428.189 268.933 428.458 268.516C428.56 268.359 428.643 268.194 428.706 268.024L432.203 245.769C432.347 245.373 432.379 244.954 432.297 244.545C432.215 244.137 432.02 243.75 431.729 243.417C431.439 243.083 431.06 242.813 430.623 242.626C430.186 242.439 429.704 242.342 429.214 242.342V242.342ZM406.001 250.091C405.103 250.09 404.242 249.787 403.607 249.249C402.973 248.71 402.616 247.981 402.616 247.22C402.616 246.46 402.973 245.73 403.607 245.192C404.242 244.654 405.103 244.351 406.001 244.35C406.062 244.35 406.118 244.364 406.179 244.367C406.046 244.829 406.062 245.314 406.228 245.769L407.66 249.709C407.156 249.957 406.584 250.089 406.001 250.091V250.091Z" fill="#F2F2F2"/>
<path d="M422.352 469.578L419.016 464.431L420.659 463.777L421.969 463.249L427.685 460.964L431.12 459.59L432.536 459.02L433.662 458.57L435.532 460.964L436.474 462.17L436.616 462.35V462.356C436.586 462.365 436.557 462.377 436.531 462.391C436.509 462.403 436.495 462.41 436.474 462.422C435.822 462.775 435.178 463.123 434.519 463.471C434.321 463.585 434.123 463.687 433.924 463.789C433.577 463.975 433.223 464.161 432.869 464.347C432.522 464.527 432.168 464.713 431.814 464.893C430.404 465.625 428.981 466.345 427.557 467.052C427.203 467.232 426.842 467.406 426.481 467.586C426.127 467.76 425.765 467.934 425.404 468.108V468.126L425.362 468.132L425.348 468.138L425.333 468.15H425.326C424.335 468.63 423.35 469.11 422.352 469.578Z" fill="#2F2E41"/>
<g opacity="0.49">
<path opacity="0.49" d="M418.982 233.324C419.143 233.143 419.29 232.953 419.42 232.754C419.168 232.842 418.908 232.911 418.643 232.961L418.982 233.324Z" fill="white"/>
<path opacity="0.49" d="M420.811 221.087C419.536 219.02 418.105 216.965 417.594 214.673C417.082 212.377 417.531 210.018 417.688 207.686C417.844 205.353 417.648 202.86 416.055 200.952C413.882 206.779 411.729 213.2 414.509 218.839C415.715 221.285 417.77 223.367 419.095 225.769C420.305 227.962 420.795 230.695 419.42 232.754C421.662 231.987 423.066 229.81 423.153 227.713C423.25 225.382 422.086 223.154 420.811 221.087Z" fill="white"/>
</g>
<g opacity="0.49">
<path opacity="0.49" d="M416.578 241.122C416.641 241.052 416.698 240.978 416.749 240.901C416.651 240.935 416.55 240.962 416.447 240.981L416.578 241.122Z" fill="white"/>
<path opacity="0.49" d="M417.289 236.368C416.73 235.594 416.309 234.754 416.039 233.876C415.922 232.973 415.934 232.062 416.076 231.162C416.215 230.254 415.992 229.333 415.441 228.546C414.597 230.809 413.761 233.304 414.841 235.495C415.309 236.445 416.108 237.254 416.622 238.187C416.889 238.601 417.039 239.061 417.061 239.531C417.083 240.002 416.976 240.471 416.749 240.901C417.181 240.721 417.546 240.442 417.802 240.096C418.058 239.75 418.196 239.351 418.199 238.942C418.162 238.032 417.848 237.146 417.289 236.368Z" fill="white"/>
</g>
<path d="M138.983 56.9138H94.3645C93.0497 56.9138 91.7887 56.4714 90.859 55.6839C89.9292 54.8965 89.4069 53.8285 89.4069 52.7148C89.4069 51.6012 89.9292 50.5332 90.859 49.7457C91.7887 48.9583 93.0497 48.5159 94.3645 48.5159H138.983C140.298 48.5159 141.559 48.9583 142.489 49.7457C143.418 50.5332 143.941 51.6012 143.941 52.7148C143.941 53.8285 143.418 54.8965 142.489 55.6839C141.559 56.4714 140.298 56.9138 138.983 56.9138V56.9138Z" fill="#2F2E41"/>
<path d="M521.437 8.62583H53.2977C51.9829 8.62583 50.7219 8.18343 49.7921 7.39598C48.8624 6.60852 48.3401 5.5405 48.3401 4.42687C48.3401 3.31323 48.8624 2.24521 49.7921 1.45775C50.7219 0.670294 51.9829 0.227905 53.2977 0.227905H521.437C522.752 0.227905 524.013 0.670294 524.943 1.45775C525.872 2.24521 526.395 3.31323 526.395 4.42687C526.395 5.5405 525.872 6.60852 524.943 7.39598C524.013 8.18343 522.752 8.62583 521.437 8.62583V8.62583Z" fill="#2F2E41"/>
<path d="M123.402 98.9034H78.7835C77.4687 98.9034 76.2077 98.461 75.278 97.6736C74.3483 96.8861 73.8259 95.8181 73.8259 94.7045C73.8259 93.5908 74.3483 92.5228 75.278 91.7353C76.2077 90.9479 77.4687 90.5055 78.7835 90.5055H123.402C124.717 90.5055 125.978 90.9479 126.908 91.7353C127.837 92.5228 128.36 93.5908 128.36 94.7045C128.36 95.8181 127.837 96.8861 126.908 97.6736C125.978 98.461 124.717 98.9034 123.402 98.9034V98.9034Z" fill="#2F2E41"/>
<path d="M478.933 56.9138H434.314C433 56.9138 431.739 56.4714 430.809 55.6839C429.879 54.8965 429.357 53.8285 429.357 52.7148C429.357 51.6012 429.879 50.5332 430.809 49.7457C431.739 48.9583 433 48.5159 434.314 48.5159H478.933C480.248 48.5159 481.509 48.9583 482.438 49.7457C483.368 50.5332 483.89 51.6012 483.89 52.7148C483.89 53.8285 483.368 54.8965 482.438 55.6839C481.509 56.4714 480.248 56.9138 478.933 56.9138V56.9138Z" fill="#2F2E41"/>
<path d="M496.638 97.1039H452.02C450.705 97.1039 449.444 96.6615 448.515 95.874C447.585 95.0866 447.062 94.0185 447.062 92.9049C447.062 91.7913 447.585 90.7232 448.515 89.9358C449.444 89.1483 450.705 88.7059 452.02 88.7059H496.638C497.953 88.7059 499.214 89.1483 500.144 89.9358C501.074 90.7232 501.596 91.7913 501.596 92.9049C501.596 94.0185 501.074 95.0866 500.144 95.874C499.214 96.6615 497.953 97.1039 496.638 97.1039V97.1039Z" fill="#2F2E41"/>
<path d="M96.8433 111.791L95.4269 111.809L97.5516 232.933L98.968 232.915L96.8433 111.791Z" fill="#B3B3B3"/>
<path d="M111.008 250.957L109.591 250.975L111.716 372.098L113.133 372.08L111.008 250.957Z" fill="#B3B3B3"/>
<path d="M95.4265 353.524L94.0107 353.557L96.1354 419.494L97.5512 419.461L95.4265 353.524Z" fill="#B3B3B3"/>
<path d="M377.541 395.742V393.452C377.541 392.577 377.146 391.736 376.437 391.1C375.728 390.464 374.758 390.081 373.727 390.031V381.09H372.83V390.021H368.792V395.721H349.723V461.275H391.899V408.593C391.899 405.303 390.411 402.137 387.741 399.747C385.07 397.357 381.42 395.923 377.541 395.742V395.742Z" fill="#2F2E41"/>
<path d="M362.286 405.032H356.677V408.832H362.286V405.032Z" fill="white"/>
<path d="M371.484 405.032H365.875V408.832H371.484V405.032Z" fill="white"/>
<path d="M380.682 405.032H375.073V408.832H380.682V405.032Z" fill="white"/>
<path d="M362.286 414.722H356.677V418.523H362.286V414.722Z" fill="white"/>
<path d="M371.484 414.722H365.875V418.523H371.484V414.722Z" fill="white"/>
<path d="M380.682 414.722H375.073V418.523H380.682V414.722Z" fill="white"/>
<path d="M362.286 424.413H356.677V428.213H362.286V424.413Z" fill="white"/>
<path d="M371.484 424.413H365.875V428.213H371.484V424.413Z" fill="white"/>
<path d="M380.682 424.413H375.073V428.213H380.682V424.413Z" fill="white"/>
<path d="M362.286 434.104H356.677V437.904H362.286V434.104Z" fill="white"/>
<path d="M371.484 434.104H365.875V437.904H371.484V434.104Z" fill="white"/>
<path d="M380.682 434.104H375.073V437.904H380.682V434.104Z" fill="white"/>
<path d="M362.286 443.794H356.677V447.595H362.286V443.794Z" fill="white"/>
<path d="M371.484 443.794H365.875V447.595H371.484V443.794Z" fill="white"/>
<path d="M380.682 443.794H375.073V447.595H380.682V443.794Z" fill="white"/>
<path d="M362.286 453.485H356.677V457.285H362.286V453.485Z" fill="white"/>
<path d="M371.484 453.485H365.875V457.285H371.484V453.485Z" fill="white"/>
<path d="M380.682 453.485H375.073V457.285H380.682V453.485Z" fill="white"/>
<path d="M335.69 363.799H334.399V357.065C334.399 356.155 333.972 355.282 333.212 354.638C332.452 353.995 331.422 353.633 330.347 353.633H324.752V343.943H323.854V353.633H316.227V363.799H308.711V461.275H350.888V376.671C350.888 374.981 350.495 373.307 349.731 371.745C348.967 370.183 347.848 368.764 346.436 367.569C345.025 366.374 343.35 365.426 341.506 364.779C339.662 364.132 337.686 363.799 335.69 363.799V363.799Z" fill="#2F2E41"/>
<path d="M338.885 371.495H320.714V372.635H338.885V371.495Z" fill="white"/>
<path d="M338.885 378.525H320.714V379.665H338.885V378.525Z" fill="white"/>
<path d="M338.885 385.555H320.714V386.695H338.885V385.555Z" fill="white"/>
<path d="M338.885 392.586H320.714V393.726H338.885V392.586Z" fill="white"/>
<path d="M338.885 399.616H320.714V400.756H338.885V399.616Z" fill="white"/>
<path d="M338.885 406.647H320.714V407.787H338.885V406.647Z" fill="white"/>
<path d="M338.885 413.677H320.714V414.817H338.885V413.677Z" fill="white"/>
<path d="M338.885 420.708H320.714V421.848H338.885V420.708Z" fill="white"/>
<path d="M338.885 427.738H320.714V428.878H338.885V427.738Z" fill="white"/>
<path d="M338.885 434.769H320.714V435.909H338.885V434.769Z" fill="white"/>
<path d="M338.885 441.799H320.714V442.939H338.885V441.799Z" fill="white"/>
<path d="M338.885 448.83H320.714V449.97H338.885V448.83Z" fill="white"/>
<path d="M328.117 355.724H322.508V359.524H328.117V355.724Z" fill="white"/>
<path d="M507.701 402.077V407.667C506.681 408.771 505.647 409.875 504.598 410.96C504.372 411.2 504.145 411.434 503.926 411.668C503.579 412.022 503.239 412.376 502.899 412.724C502.785 412.844 502.672 412.958 502.552 413.078C501.971 413.666 501.39 414.253 500.795 414.841C500.795 414.841 500.802 414.847 500.795 414.847C500.222 415.423 499.641 415.999 499.053 416.575C498.734 416.893 498.408 417.205 498.076 417.523C497.587 418.009 497.084 418.488 496.574 418.968C496.567 418.974 496.567 418.98 496.56 418.986L496.539 419.004V402.077L507.701 402.077Z" fill="#2F2E41"/>
<path d="M522.262 390.416C520.406 392.839 518.501 395.226 516.546 397.578C516.546 397.584 516.539 397.584 516.532 397.59C515.363 399.005 514.167 400.409 512.963 401.801C512.191 402.689 511.412 403.572 510.625 404.452C509.839 405.334 509.046 406.208 508.246 407.073C508.069 407.271 507.885 407.469 507.7 407.667C506.681 408.771 505.647 409.875 504.598 410.96C504.372 411.2 504.145 411.434 503.926 411.668C503.579 412.022 503.239 412.376 502.899 412.724C502.778 412.844 502.665 412.958 502.552 413.078C501.971 413.666 501.39 414.253 500.795 414.841C500.795 414.841 500.802 414.847 500.795 414.847C500.222 415.423 499.641 415.999 499.053 416.575C498.734 416.893 498.409 417.205 498.076 417.523H474.952C472.484 417.521 470.118 416.69 468.373 415.213C466.629 413.735 465.648 411.731 465.646 409.641V398.298C465.649 396.208 466.63 394.204 468.375 392.727C470.119 391.249 472.485 390.418 474.952 390.416H522.262Z" fill="#2F2E41"/>
<path d="M534.491 293.325C533.07 292.909 531.576 292.698 530.072 292.701H526.269C524.883 292.701 523.506 292.877 522.182 293.223C519.39 293.966 516.95 295.444 515.217 297.441C513.483 299.439 512.547 301.853 512.543 304.332V398.958C512.543 399.312 512.564 399.66 512.6 400.002C512.661 400.609 512.782 401.211 512.961 401.802C514.165 400.41 515.362 399.006 516.53 397.591C516.538 397.585 516.545 397.585 516.545 397.579C518.499 395.227 520.405 392.84 522.26 390.417C523.259 389.115 524.25 387.801 525.22 386.481C532.232 376.954 538.442 367.02 543.804 356.753V304.332C543.801 301.904 542.902 299.537 541.232 297.563C539.562 295.59 537.205 294.107 534.491 293.325V293.325Z" fill="#2F2E41"/>
<path d="M369.283 469.292L359.641 465.386L372.886 431.252L387.116 437.016L369.283 469.292Z" fill="#FFB6B6"/>
<path d="M433.924 463.789C433.223 464.161 432.522 464.527 431.814 464.893C430.404 465.625 428.981 466.345 427.557 467.052C426.842 467.406 426.12 467.76 425.404 468.108V468.126L425.362 468.132L425.348 468.138L424.257 468.366L422.692 464.863L421.969 463.249L420.95 460.964L419.08 456.783L409.235 434.768L424.54 431.571L425.114 433.557H425.121L425.404 434.54L430.751 452.908L431.842 456.663L431.878 456.777L432.536 459.02L433.103 460.964L433.733 463.135L433.924 463.789Z" fill="#FFB6B6"/>
<path d="M394.889 320.929C396.264 322.82 398.458 324.182 401.002 324.722C403.546 325.263 406.239 324.94 408.505 323.822C408.961 323.588 409.393 323.323 409.797 323.029L440.28 337.845L438.956 322.636L410.212 310.898C408.648 309.567 406.607 308.714 404.409 308.471C402.21 308.229 399.979 308.611 398.065 309.558C395.874 310.672 394.295 312.478 393.676 314.579C393.057 316.679 393.448 318.901 394.764 320.757C394.805 320.815 394.846 320.872 394.889 320.929Z" fill="#FFB6B6"/>
<path d="M427.175 332.266L432.563 335.047L456.763 347.546C458.351 348.388 460.12 348.956 461.968 349.219C463.816 349.482 465.707 349.434 467.533 349.078C469.359 348.722 471.084 348.065 472.61 347.144C474.136 346.223 475.433 345.057 476.427 343.711L476.435 343.7C478.227 341.2 478.861 338.226 478.215 335.353L467.459 289.84C467.062 288.054 466.213 286.361 464.972 284.877C463.732 283.394 462.127 282.155 460.269 281.245C458.41 280.335 456.342 279.775 454.205 279.605C452.068 279.434 449.912 279.657 447.886 280.257C444.48 281.271 441.658 283.345 439.994 286.059C438.33 288.772 437.949 291.921 438.929 294.864L450.176 327.163L432.936 320.356L427.175 332.266Z" fill="#6C63FF"/>
<path d="M526.403 377.142C526.396 377.124 526.382 377.058 526.361 376.956L526.339 376.89C526.29 376.674 526.233 376.434 526.169 376.17C524.724 370.092 522.868 364.09 520.61 358.192C519.272 354.581 517.499 351.095 515.319 347.791C515.249 347.683 515.171 347.575 515.093 347.467L514.831 347.107L512.628 347.791L512.543 347.815L479.058 358.21L469.377 361.216L469.072 361.312L467.422 367.01L444.27 364.473L425.403 362.403L419.985 361.81C417.636 361.55 415.25 361.689 412.965 362.219C410.681 362.748 408.543 363.657 406.677 364.893C404.73 366.171 403.103 367.765 401.891 369.582C400.678 371.399 399.905 373.402 399.616 375.474C399.545 375.93 399.503 376.392 399.482 376.848L397.846 428.537V428.603L398.603 429.887L414.432 456.784H425.403L431.876 456.778H437.138L426.196 433.33L426.444 433.012C427.473 431.675 428.122 430.154 428.34 428.569C428.557 426.984 428.337 425.377 427.697 423.876L428.93 420.853C431.486 414.608 430.275 411.609 428.746 407.818C427.372 404.735 426.564 401.493 426.352 398.203L426.097 393.926C432.52 394.879 438.505 395.941 444.27 397.009C446.196 397.363 448.104 397.721 449.992 398.083C455.368 399.096 460.559 400.074 465.644 400.89C475.942 402.551 485.808 403.565 495.942 402.935C496.141 402.923 496.339 402.911 496.537 402.893C499.002 402.725 501.481 402.455 503.988 402.078C505.397 401.862 506.814 401.616 508.244 401.328C508.641 401.244 509.045 401.16 509.441 401.076C510.542 400.83 511.603 400.469 512.6 400.002C514.017 399.332 515.337 398.522 516.53 397.591C516.538 397.585 516.545 397.585 516.545 397.579C518.499 395.227 520.405 392.84 522.26 390.416C523.259 389.115 524.25 387.801 525.22 386.481C526.637 383.188 527.175 379.865 526.403 377.142Z" fill="#2F2E41"/>
<path d="M526.637 367.43C526.531 367.046 526.396 366.656 526.254 366.278C525.13 363.416 523.82 360.609 522.331 357.868C520.659 354.749 518.655 351.408 516.268 347.791C515.114 346.039 513.872 344.218 512.543 342.326C511.877 341.379 511.186 340.413 510.468 339.429C510.44 339.384 510.409 339.34 510.376 339.297L510.171 339.009L477.04 342.764L464.702 344.162L463.966 349.369L463.789 350.658C463.782 350.658 463.782 350.658 463.789 350.664L463.293 354.179V354.185L462.634 358.828L462.578 358.822L444.27 356.813L425.403 354.743L415.268 353.634C412.919 353.374 410.533 353.513 408.248 354.043C405.964 354.572 403.826 355.481 401.96 356.717C400.013 357.995 398.386 359.59 397.174 361.406C395.961 363.223 395.188 365.226 394.899 367.298C394.835 367.718 394.793 368.15 394.772 368.576L385.211 387.765C379.489 399.241 375.846 411.383 374.403 423.78L367.392 442.766L368.39 442.843L383.249 444.013L387.172 444.325L395.813 433.642C396.797 432.424 397.732 431.17 398.603 429.887C400.038 427.79 401.313 425.618 402.421 423.384L421.111 385.714C422.556 385.924 423.986 386.124 425.403 386.313C431.954 387.213 438.243 387.947 444.27 388.515C463.867 390.368 480.836 390.512 495.942 388.941C500.185 388.503 504.285 387.927 508.244 387.213C509.696 386.955 511.129 386.677 512.543 386.379C512.876 386.313 513.202 386.247 513.528 386.175C516.454 385.536 519.145 384.285 521.354 382.537C523.563 380.789 525.218 378.6 526.169 376.17C527.305 373.354 527.467 370.322 526.637 367.43V367.43Z" fill="#2F2E41"/>
<path d="M456.186 254.137C468.842 254.137 479.103 245.253 479.103 234.294C479.103 223.335 468.842 214.451 456.186 214.451C443.529 214.451 433.268 223.335 433.268 234.294C433.268 245.253 443.529 254.137 456.186 254.137Z" fill="#FFB6B6"/>
<path d="M510.603 340.095C510.567 339.873 510.525 339.651 510.468 339.429C509.923 336.994 508.506 334.606 507.139 332.291C505.836 330.083 504.597 327.996 504.087 325.92C503.584 323.875 503.882 321.823 504.172 319.844C504.484 317.697 504.809 315.477 504.08 313.324C500.38 302.326 495.299 291.696 488.924 281.615C487.315 277.183 484.231 273.238 480.042 270.252C475.853 267.267 470.736 265.368 465.304 264.784C465.938 263.781 466.202 262.64 466.062 261.508C465.973 260.777 465.714 260.069 465.3 259.423C464.885 258.777 464.323 258.208 463.647 257.747C462.997 257.304 462.25 256.974 461.449 256.776C460.648 256.579 459.809 256.517 458.98 256.596L448.328 257.609C446.62 257.791 445.066 258.536 444.004 259.683C442.942 260.83 442.457 262.286 442.655 263.734C442.715 264.18 442.834 264.618 443.009 265.042C433.122 275.707 428.044 285.425 427.577 294.614V294.62C427.52 295.682 427.527 296.745 427.598 297.805C427.822 301.236 428.702 304.613 430.205 307.805C431.978 311.492 434.352 314.951 437.258 318.08C437.853 318.716 438.47 319.34 439.107 319.952C439.702 320.552 440.368 321.182 441.104 321.841L442.967 324.313L444.702 326.622L453.98 344.756L458.704 344.624L459.362 348.613L459.518 349.543L462.578 358.822L462.804 359.518L466.99 357.833L491.962 347.791L510.631 340.281L510.603 340.095Z" fill="#6C63FF"/>
<path opacity="0.2" d="M430.485 307.709C432.614 312.126 435.608 316.208 439.339 319.783C439.978 320.429 440.653 321.064 441.359 321.7L444.985 326.518C458.348 318.034 469.176 284.629 469.176 284.629L454.098 282.145L430.485 307.709Z" fill="black"/>
<path d="M421.356 255.99C422.677 257.911 423.06 260.193 422.425 262.349C421.789 264.506 420.185 266.367 417.954 267.538C417.496 267.77 417.017 267.969 416.52 268.134L417.587 297.888L402.374 289.777L403.693 262.765C403.045 260.968 403.119 259.039 403.902 257.281C404.684 255.522 406.133 254.033 408.02 253.045C410.202 251.927 412.818 251.589 415.294 252.105C417.77 252.621 419.903 253.949 421.223 255.797C421.268 255.861 421.313 255.926 421.356 255.99Z" fill="#FFB6B6"/>
<path d="M418.924 286.657L402.194 288.672L402.914 318.015C402.955 320.109 403.628 322.158 404.869 323.969C406.109 325.78 407.876 327.292 410 328.362V328.362C412.596 329.656 415.618 330.2 418.611 329.912C421.603 329.624 424.404 328.52 426.591 326.767L466.089 294.589C468.868 292.356 470.531 289.306 470.737 286.066C470.942 282.827 469.674 279.644 467.193 277.172V277.172C464.762 274.735 461.287 273.215 457.534 272.948C453.78 272.68 450.055 273.687 447.178 275.746C447.065 275.826 446.954 275.908 446.844 275.992C446.454 276.287 446.083 276.6 445.732 276.93L419.652 302.342L418.924 286.657Z" fill="#6C63FF"/>
<path d="M372.363 463.718L361.931 459.483L360.295 458.818L357.682 464.252L339.438 467.653C338.536 467.821 337.721 468.228 337.111 468.816C336.502 469.404 336.131 470.141 336.052 470.921C335.973 471.7 336.19 472.48 336.672 473.148C337.153 473.815 337.875 474.334 338.73 474.63L356.556 480.79L362.215 476.477L360.826 482.266L367.54 484.587L374.899 464.75L372.363 463.718Z" fill="#2F2E41"/>
<path d="M517.51 225.688C513.614 221.84 511.762 216.736 508.648 212.367C505.534 207.997 500.115 204.087 494.39 205.104C490.443 205.805 487.393 208.754 485.849 212.043C484.305 215.331 484.016 218.958 483.745 222.51C483.841 215.209 478.162 208.132 470.339 205.802C462.516 203.472 453.154 206.071 448.239 211.936C446.093 210.252 443.293 209.293 440.369 209.241C437.445 209.189 434.6 210.048 432.373 211.654C427.976 214.983 427.003 221.318 430.237 225.563C433.47 229.809 440.473 231.39 445.612 229.036L447.429 230.451C446.406 233.48 448.389 237.059 451.723 238.199C454.426 239.124 458.243 238.97 459.254 241.373C459.961 243.052 458.64 244.844 457.234 246.134C455.829 247.424 454.16 248.756 453.992 250.541C453.737 253.235 457.023 255.122 460.011 255.69C467.214 257.06 475.207 254.235 479.359 248.85C479.439 248.746 479.526 248.643 479.62 248.538C481.95 246.015 483.647 243.116 484.609 240.019C485.571 236.921 485.778 233.69 485.216 230.523C484.982 229.278 485.217 228.353 486.231 228.058C490.609 226.784 502.877 229.458 506.59 231.874C510.303 234.291 513.276 237.488 516.852 240.061C520.428 242.633 524.986 244.617 529.526 243.917C533.163 243.356 536.257 241.12 538.338 238.422C540.419 235.725 541.617 232.581 542.689 229.456C534.647 233.391 523.641 231.744 517.51 225.688Z" fill="#2F2E41"/>
<path d="M445.171 457.533V457.665L444.973 457.647C444.739 457.791 444.505 457.923 444.272 458.061C442.579 459.044 440.872 460.012 439.151 460.964C438.308 461.432 437.465 461.894 436.616 462.35V462.356C436.609 462.356 436.601 462.362 436.594 462.362H436.587L436.573 462.374L436.531 462.391C436.509 462.403 436.495 462.41 436.474 462.422V351.533C436.474 348.318 435.199 345.708 433.634 345.702H315.721C314.149 345.708 312.881 348.318 312.874 351.533V498.773C311.302 498.904 309.729 499.03 308.157 499.138C308.129 499.138 308.1 499.144 308.072 499.144C307.449 499.192 306.826 499.228 306.202 499.27H306.195C305.82 498.682 305.452 498.089 305.083 497.489V343.969C305.083 343.081 305.126 342.187 305.197 341.305C305.298 340.095 305.475 338.889 305.728 337.694C306.925 332.122 309.63 328.349 312.704 328.337H436.644C437.093 328.339 437.536 328.419 437.947 328.571C438.551 328.797 439.097 329.121 439.555 329.524C440.176 330.071 440.707 330.687 441.134 331.354C442.65 333.615 443.733 336.987 444.116 340.91C444.116 340.946 444.123 340.982 444.123 341.018C444.222 341.989 444.272 342.979 444.264 343.969L444.364 356.824L444.427 364.49L444.619 388.544L444.689 397.086L445.171 457.533Z" fill="#2F2E41"/>
<path d="M352.424 292.674L344.222 323.24L338.981 328.102H335.2L350.784 272.528L351.554 281.969V281.976L352.424 292.674Z" fill="#2F2E41"/>
<path d="M391.896 323.911L343.779 323.653L339.509 323.629L336.463 323.611L332.915 323.593H332.887C332.372 323.594 331.878 323.766 331.513 324.073L325.521 329.148C325.388 329.258 325.28 329.388 325.202 329.532C325.165 329.572 325.134 329.616 325.11 329.664C324.981 329.919 324.927 330.197 324.954 330.474C324.982 330.751 325.089 331.018 325.266 331.251C325.444 331.485 325.687 331.677 325.973 331.813C326.26 331.948 326.581 332.022 326.909 332.027H389.24C389.614 332.026 389.981 331.935 390.296 331.765C390.612 331.595 390.865 331.353 391.025 331.067L391.514 330.167L392.52 328.338L393.66 326.274C393.781 326.055 393.844 325.815 393.844 325.573C393.841 325.135 393.636 324.715 393.271 324.404C392.907 324.094 392.413 323.916 391.896 323.911Z" fill="#2F2E41"/>
<path opacity="0.17" d="M391.514 330.166L391.022 331.069C390.862 331.354 390.61 331.596 390.295 331.765C389.98 331.935 389.615 332.026 389.242 332.028H326.908C326.58 332.023 326.259 331.949 325.973 331.814C325.686 331.679 325.444 331.486 325.266 331.253C325.089 331.019 324.982 330.752 324.955 330.475C324.928 330.199 324.982 329.921 325.112 329.666C325.134 329.618 325.164 329.574 325.202 329.534L391.514 330.166Z" fill="black"/>
<path opacity="0.17" d="M351.554 281.969V281.976L338.21 328.102H335.2L350.784 272.528L351.554 281.969Z" fill="black"/>
<path d="M367.93 290.421L349.041 168.705C348.972 168.249 348.692 167.835 348.262 167.554L335.259 153.769L334.091 153.007C333.658 152.73 333.114 152.607 332.575 152.665L330.62 152.887C330.081 152.946 329.592 153.184 329.26 153.548C328.928 153.913 328.78 154.374 328.85 154.831V154.831L348.425 280.944V280.95L349.622 288.664L351.046 297.823V297.835L353.255 312.088C353.291 312.332 353.388 312.567 353.541 312.776C353.694 312.985 353.898 313.164 354.141 313.3C354.379 313.438 354.649 313.533 354.934 313.576C355.218 313.62 355.51 313.611 355.791 313.551L357.03 313.288C357.505 313.184 357.921 312.942 358.206 312.604L358.758 311.938L359.013 311.626L367.569 291.651C367.869 291.295 367.998 290.855 367.93 290.421V290.421Z" fill="#2F2E41"/>
<path opacity="0.17" d="M335.256 153.77L359.016 311.629L358.757 311.938L358.207 312.601C357.923 312.94 357.506 313.183 357.031 313.286L355.79 313.55C355.509 313.609 355.216 313.617 354.931 313.574C354.646 313.531 354.376 313.437 354.136 313.299C353.897 313.161 353.695 312.982 353.543 312.773C353.391 312.564 353.293 312.331 353.255 312.088L328.853 154.833C328.782 154.376 328.929 153.914 329.26 153.549C329.591 153.184 330.08 152.945 330.619 152.885L332.578 152.666C332.844 152.636 333.115 152.651 333.374 152.71C333.633 152.769 333.876 152.871 334.088 153.01L335.256 153.77Z" fill="black"/>
<path d="M335.956 158.284L348.565 173.527L363.551 270.103L355.426 283.755L335.956 158.284Z" fill="#6C63FF"/>
<path d="M526.284 352.997C526.284 354.052 525.907 355.082 525.201 355.952C524.496 356.821 523.495 357.489 522.333 357.867C521.781 358.047 521.201 358.156 520.612 358.191C520.456 358.203 520.293 358.209 520.137 358.209H508.246V407.073C508.069 407.271 507.885 407.469 507.701 407.667C506.681 408.771 505.647 409.875 504.598 410.96C504.372 411.2 504.145 411.434 503.926 411.668C503.579 412.022 503.239 412.376 502.899 412.724C502.778 412.844 502.665 412.958 502.552 413.078C501.971 413.666 501.39 414.253 500.795 414.841C500.795 414.841 500.802 414.847 500.795 414.847C500.222 415.423 499.641 415.999 499.053 416.575C497.98 416.068 497.116 415.296 496.574 414.362C496.567 414.356 496.567 414.35 496.56 414.338C496.552 414.324 496.545 414.31 496.539 414.295C496.141 413.594 495.938 412.824 495.944 412.046V358.209H469.286C468.499 358.213 467.719 358.085 466.992 357.832C466.074 357.521 465.258 357.027 464.614 356.392C463.971 355.757 463.518 355 463.295 354.184V354.178C462.963 352.994 463.138 351.748 463.79 350.663C463.783 350.657 463.783 350.657 463.79 350.657C464.068 350.183 464.434 349.749 464.874 349.374C464.874 349.368 464.874 349.368 464.881 349.362C465.455 348.865 466.14 348.47 466.897 348.2C467.653 347.93 468.465 347.791 469.286 347.79H520.137C521.767 347.791 523.33 348.34 524.483 349.316C525.636 350.292 526.284 351.616 526.284 352.997V352.997Z" fill="#2F2E41"/>
<path d="M525.876 252.62C523.345 252.62 520.838 253.042 518.5 253.862C516.161 254.683 514.037 255.885 512.247 257.401C510.457 258.917 509.037 260.717 508.069 262.697C507.1 264.678 506.601 266.801 506.601 268.944V268.945C506.602 272.731 508.157 276.4 511 279.323C513.843 282.246 517.797 284.241 522.185 284.967V311.667H534.488V252.62H525.876Z" fill="#2F2E41"/>
<path d="M447.988 211.057C453.255 216.98 460.14 231.285 457.636 238.389Z" fill="#FD6584"/>
</g>
<defs>
<clipPath id="clip0">
<rect width="568" height="500" fill="white"/>
</clipPath>
</defs>
</svg>
