<?xml version="1.0" encoding="utf-8"?><svg xmlns="http://www.w3.org/2000/svg" xmlns:xlink="http://www.w3.org/1999/xlink" width="1920" height="1089" preserveAspectRatio="xMidYMid" viewBox="0 0 1920 1089" style="z-index:1;margin-right:-2px;display:block;background-repeat-y:initial;background-repeat-x:initial;background-color:rgb(28, 36, 49);animation-play-state:paused" ><g transform="translate(960,544.5) scale(1,1) translate(-960,-544.5)" style="transform:matrix(1, 0, 0, 1, 0, 0);animation-play-state:paused" ><defs style="animation-play-state:paused" ><linearGradient id="ldbk-photon-wipfj5wjtzm-lg" x1="935" x2="1920" y1="0" y2="0" gradientUnits="userSpaceOnUse" style="animation-play-state:paused" ><stop stop-color="#1d3f72" offset="0" style="animation-play-state:paused" ></stop>

    
<stop stop-color="#34ffef" offset="1" style="animation-play-state:paused" ></stop></linearGradient>

  
<mask id="ldbk-photon-wipfj5wjtzm-mask" style="animation-play-state:paused" ><g style="animation-play-state:paused" ><path d="M2220 -0.5 L921.5694329500374 -0.5 A15.5 15.5 0 0 1 921.5694329500374 31.5 L2220 31.5" fill="#fff" transform="matrix(1,0,0,1,33.943721771240234,0)" style="transform:matrix(1, 0, 0, 1, 33.9437, 0);animation-play-state:paused" ></path>
<path d="M1981.7487371895465 -0.5 L2012.497474379093 -0.5 A15.5 15.5 0 0 1 2012.497474379093 31.5 L1981.7487371895465 31.5 A15.5 15.5 0 0 1 1981.7487371895465 -0.5" fill="#000" transform="matrix(1,0,0,1,0,0)" opacity="1" style="transform:matrix(1, 0, 0, 1, 0, 0);animation-play-state:paused" ></path>
<path d="M2220 30.5 L895.0004593440667 30.5 A15.5 15.5 0 0 0 895.0004593440667 62.5 L2220 62.5" fill="#fff" transform="matrix(1,0,0,1,-27.478544235229492,0)" style="transform:matrix(1, 0, 0, 1, -27.4785, 0);animation-play-state:paused" ></path>
<path d="M1026.477017003691 30.5 L1042.7396908235664 30.5 A15.5 15.5 0 0 1 1042.7396908235664 62.5 L1026.477017003691 62.5 A15.5 15.5 0 0 1 1026.477017003691 30.5" fill="#fff" transform="matrix(1,0,0,1,0,0)" opacity="1" style="transform:matrix(1, 0, 0, 1, 0, 0);animation-play-state:paused" ></path>
<path d="M2220 61.5 L914.5500848244027 61.5 A15.5 15.5 0 0 1 914.5500848244027 93.5 L2220 93.5" fill="#fff" transform="matrix(1,0,0,1,29.8250789642334,0)" style="transform:matrix(1, 0, 0, 1, 29.8251, 0);animation-play-state:paused" ></path>
<path d="M1983.1060446033691 61.5 L2015.2120892067383 61.5 A15.5 15.5 0 0 1 2015.2120892067383 93.5 L1983.1060446033691 93.5 A15.5 15.5 0 0 1 1983.1060446033691 61.5" fill="#000" transform="matrix(1,0,0,1,-728.5140991210938,0)" opacity="0.952381" style="transform:matrix(1, 0, 0, 1, -728.514, 0);opacity:0.952381;animation-play-state:paused" ></path>
<path d="M2220 92.5 L874.37484488828 92.5 A15.5 15.5 0 0 0 874.37484488828 124.5 L2220 124.5" fill="#fff" transform="matrix(1,0,0,1,-15.293174743652344,0)" style="transform:matrix(1, 0, 0, 1, -15.2932, 0);animation-play-state:paused" ></path>
<path d="M1018.893149625276 92.5 L1058.1620657225822 92.5 A15.5 15.5 0 0 1 1058.1620657225822 124.5 L1018.893149625276 124.5 A15.5 15.5 0 0 1 1018.893149625276 92.5" fill="#fff" transform="matrix(1,0,0,1,0,0)" opacity="0.714286" style="transform:matrix(1, 0, 0, 1, 0, 0);opacity:0.714286;animation-play-state:paused" ></path>
<path d="M2220 123.5 L934.6598257910839 123.5 A15.5 15.5 0 0 1 934.6598257910839 155.5 L2220 155.5" fill="#fff" transform="matrix(1,0,0,1,42.86357498168945,0)" style="transform:matrix(1, 0, 0, 1, 42.8636, 0);animation-play-state:paused" ></path>
<path d="M1964.8947733303428 123.5 L1978.7895466606856 123.5 A15.5 15.5 0 0 1 1978.7895466606856 155.5 L1964.8947733303428 155.5 A15.5 15.5 0 0 1 1964.8947733303428 123.5" fill="#000" transform="matrix(1,0,0,1,-1113.315185546875,0)" opacity="0.476191" style="transform:matrix(1, 0, 0, 1, -1113.32, 0);opacity:0.476191;animation-play-state:paused" ></path>
<path d="M2220 154.5 L891.2853748905557 154.5 A15.5 15.5 0 0 0 891.2853748905557 186.5 L2220 186.5" fill="#fff" transform="matrix(1,0,0,1,-20.808120727539062,0)" style="transform:matrix(1, 0, 0, 1, -20.8081, 0);animation-play-state:paused" ></path>
<path d="M977.2562436015279 154.5 L994.6006587112213 154.5 A15.5 15.5 0 0 1 994.6006587112213 186.5 L977.2562436015279 186.5 A15.5 15.5 0 0 1 977.2562436015279 154.5" fill="#fff" transform="matrix(1,0,0,1,0,0)" opacity="0.238095" style="transform:matrix(1, 0, 0, 1, 0, 0);opacity:0.238095;animation-play-state:paused" ></path>
<path d="M2220 185.5 L908.3649370486226 185.5 A15.5 15.5 0 0 1 908.3649370486226 217.5 L2220 217.5" fill="#fff" transform="matrix(1,0,0,1,9.042066574649343e-12,0)" style="transform:matrix(1, 0, 0, 1, 9.04207e-12, 0);animation-play-state:paused" ></path>
<path d="M1972.451327467262 185.5 L1993.902654934524 185.5 A15.5 15.5 0 0 1 1993.902654934524 217.5 L1972.451327467262 217.5 A15.5 15.5 0 0 1 1972.451327467262 185.5" fill="#000" transform="matrix(1,0,0,1,-1015.1358032226562,0)" opacity="0.714285" style="transform:matrix(1, 0, 0, 1, -1015.14, 0);opacity:0.714285;animation-play-state:paused" ></path>
<path d="M2220 216.5 L884.5246271321791 216.5 A15.5 15.5 0 0 0 884.5246271321791 248.5 L2220 248.5" fill="#fff" transform="matrix(1,0,0,1,-15.760247230529785,0)" style="transform:matrix(1, 0, 0, 1, -15.7602, 0);animation-play-state:paused" ></path>
<path d="M992.7117366095213 216.5 L1031.8295557523682 216.5 A15.5 15.5 0 0 1 1031.8295557523682 248.5 L992.7117366095213 248.5 A15.5 15.5 0 0 1 992.7117366095213 216.5" fill="#fff" transform="matrix(1,0,0,1,0,0)" opacity="0.357143" style="transform:matrix(1, 0, 0, 1, 0, 0);opacity:0.357143;animation-play-state:paused" ></path>
<path d="M2220 247.5 L898.4724572948094 247.5 A15.5 15.5 0 0 1 898.4724572948094 279.5 L2220 279.5" fill="#fff" transform="matrix(1,0,0,1,7.982013702392578,0)" style="transform:matrix(1, 0, 0, 1, 7.98201, 0);animation-play-state:paused" ></path>
<path d="M1967.084807085679 247.5 L1983.1696141713578 247.5 A15.5 15.5 0 0 1 1983.1696141713578 279.5 L1967.084807085679 279.5 A15.5 15.5 0 0 1 1967.084807085679 247.5" fill="#000" transform="matrix(1,0,0,1,-785.5219116210938,0)" opacity="0.952381" style="transform:matrix(1, 0, 0, 1, -785.522, 0);opacity:0.952381;animation-play-state:paused" ></path>
<path d="M2220 278.5 L873.0231578034104 278.5 A15.5 15.5 0 0 0 873.0231578034104 310.5 L2220 310.5" fill="#fff" transform="matrix(1,0,0,1,-16.64027976989746,0)" style="transform:matrix(1, 0, 0, 1, -16.6403, 0);animation-play-state:paused" ></path>
<path d="M1008.6205151057198 278.5 L1036.4960546950056 278.5 A15.5 15.5 0 0 1 1036.4960546950056 310.5 L1008.6205151057198 310.5 A15.5 15.5 0 0 1 1008.6205151057198 278.5" fill="#fff" transform="matrix(1,0,0,1,0,0)" opacity="1" style="transform:matrix(1, 0, 0, 1, 0, 0);animation-play-state:paused" ></path>
<path d="M2220 309.5 L927.4909216007738 309.5 A15.5 15.5 0 0 1 927.4909216007738 341.5 L2220 341.5" fill="#fff" transform="matrix(1,0,0,1,9.460905149583088e-12,0)" style="transform:matrix(1, 0, 0, 1, 9.46091e-12, 0);animation-play-state:paused" ></path>
<path d="M1965.3512702892526 309.5 L1979.7025405785052 309.5 A15.5 15.5 0 0 1 1979.7025405785052 341.5 L1965.3512702892526 341.5 A15.5 15.5 0 0 1 1965.3512702892526 309.5" fill="#000" transform="matrix(1,0,0,1,-1531.8089599609375,0)" opacity="0.476191" style="transform:matrix(1, 0, 0, 1, -1531.81, 0);opacity:0.476191;animation-play-state:paused" ></path>
<path d="M2220 340.5 L897.8942145884795 340.5 A15.5 15.5 0 0 0 897.8942145884795 372.5 L2220 372.5" fill="#fff" transform="matrix(1,0,0,1,-37.248783111572266,0)" style="transform:matrix(1, 0, 0, 1, -37.2488, 0);animation-play-state:paused" ></path>
<path d="M958.1344251009299 340.5 L992.7623704104377 340.5 A15.5 15.5 0 0 1 992.7623704104377 372.5 L958.1344251009299 372.5 A15.5 15.5 0 0 1 958.1344251009299 340.5" fill="#fff" transform="matrix(1,0,0,1,0,0)" opacity="0.357143" style="transform:matrix(1, 0, 0, 1, 0, 0);opacity:0.357143;animation-play-state:paused" ></path>
<path d="M2220 371.5 L934.1193166654228 371.5 A15.5 15.5 0 0 1 934.1193166654228 403.5 L2220 403.5" fill="#fff" transform="matrix(1,0,0,1,49.756473541259766,0)" style="transform:matrix(1, 0, 0, 1, 49.7565, 0);animation-play-state:paused" ></path>
<path d="M1965.1560347782342 371.5 L1979.3120695564685 371.5 A15.5 15.5 0 0 1 1979.3120695564685 403.5 L1965.1560347782342 403.5 A15.5 15.5 0 0 1 1965.1560347782342 371.5" fill="#000" transform="matrix(1,0,0,1,0,0)" opacity="1" style="transform:matrix(1, 0, 0, 1, 0, 0);animation-play-state:paused" ></path>
<path d="M2220 402.5 L887.268142971863 402.5 A15.5 15.5 0 0 0 887.268142971863 434.5 L2220 434.5" fill="#fff" transform="matrix(1,0,0,1,-20.918804168701172,0)" style="transform:matrix(1, 0, 0, 1, -20.9188, 0);animation-play-state:paused" ></path>
<path d="M990.7580650600815 402.5 L1026.7516536195913 402.5 A15.5 15.5 0 0 1 1026.7516536195913 434.5 L990.7580650600815 434.5 A15.5 15.5 0 0 1 990.7580650600815 402.5" fill="#fff" transform="matrix(1,0,0,1,0,0)" opacity="1" style="transform:matrix(1, 0, 0, 1, 0, 0);animation-play-state:paused" ></path>
<path d="M2220 433.5 L918.6484876584058 433.5 A15.5 15.5 0 0 1 918.6484876584058 465.5 L2220 465.5" fill="#fff" transform="matrix(1,0,0,1,9.270223477741979e-12,0)" style="transform:matrix(1, 0, 0, 1, 9.27022e-12, 0);animation-play-state:paused" ></path>
<path d="M1983.8113077299724 433.5 L2016.6226154599449 433.5 A15.5 15.5 0 0 1 2016.6226154599449 465.5 L1983.8113077299724 465.5 A15.5 15.5 0 0 1 1983.8113077299724 433.5" fill="#000" transform="matrix(1,0,0,1,-1187.2686767578125,0)" opacity="0.714285" style="transform:matrix(1, 0, 0, 1, -1187.27, 0);opacity:0.714285;animation-play-state:paused" ></path>
<path d="M2220 464.5 L888.4856714606944 464.5 A15.5 15.5 0 0 0 888.4856714606944 496.5 L2220 496.5" fill="#fff" transform="matrix(1,0,0,1,-15.066848754882812,0)" style="transform:matrix(1, 0, 0, 1, -15.0668, 0);animation-play-state:paused" ></path>
<path d="M982.8825108008077 464.5 L1007.275164375375 464.5 A15.5 15.5 0 0 1 1007.275164375375 496.5 L982.8825108008077 496.5 A15.5 15.5 0 0 1 982.8825108008077 464.5" fill="#fff" transform="matrix(1,0,0,1,0,0)" opacity="0.714286" style="transform:matrix(1, 0, 0, 1, 0, 0);opacity:0.714286;animation-play-state:paused" ></path>
<path d="M2220 495.5 L929.6018494378887 495.5 A15.5 15.5 0 0 1 929.6018494378887 527.5 L2220 527.5" fill="#fff" transform="matrix(1,0,0,1,9.301735877990723,0)" style="transform:matrix(1, 0, 0, 1, 9.30174, 0);animation-play-state:paused" ></path>
<path d="M1978.8038528085247 495.5 L2006.6077056170493 495.5 A15.5 15.5 0 0 1 2006.6077056170493 527.5 L1978.8038528085247 527.5 A15.5 15.5 0 0 1 1978.8038528085247 495.5" fill="#000" transform="matrix(1,0,0,1,-0.0006194899906404316,0)" opacity="1" style="transform:matrix(1, 0, 0, 1, -0.00061949, 0);animation-play-state:paused" ></path>
<path d="M2220 526.5 L881.0034231222962 526.5 A15.5 15.5 0 0 0 881.0034231222962 558.5 L2220 558.5" fill="#fff" transform="matrix(1,0,0,1,-24.019596099853516,0)" style="transform:matrix(1, 0, 0, 1, -24.0196, 0);animation-play-state:paused" ></path>
<path d="M1020.8739340100659 526.5 L1059.8248003459173 526.5 A15.5 15.5 0 0 1 1059.8248003459173 558.5 L1020.8739340100659 558.5 A15.5 15.5 0 0 1 1020.8739340100659 526.5" fill="#fff" transform="matrix(1,0,0,1,0,0)" opacity="0.833333" style="transform:matrix(1, 0, 0, 1, 0, 0);opacity:0.833333;animation-play-state:paused" ></path>
<path d="M2220 557.5 L934.5012275806986 557.5 A15.5 15.5 0 0 1 934.5012275806986 589.5 L2220 589.5" fill="#fff" transform="matrix(1,0,0,1,44.1739616394043,0)" style="transform:matrix(1, 0, 0, 1, 44.174, 0);animation-play-state:paused" ></path>
<path d="M1978.9218236013699 557.5 L2006.8436472027397 557.5 A15.5 15.5 0 0 1 2006.8436472027397 589.5 L1978.9218236013699 589.5 A15.5 15.5 0 0 1 1978.9218236013699 557.5" fill="#000" transform="matrix(1,0,0,1,0,0)" opacity="1" style="transform:matrix(1, 0, 0, 1, 0, 0);animation-play-state:paused" ></path>
<path d="M2220 588.5 L914.086485696216 588.5 A15.5 15.5 0 0 0 914.086485696216 620.5 L2220 620.5" fill="#fff" transform="matrix(1,0,0,1,-2.144815683364868,0)" style="transform:matrix(1, 0, 0, 1, -2.14482, 0);animation-play-state:paused" ></path>
<path d="M1046.6898981617333 588.5 L1078.913174952621 588.5 A15.5 15.5 0 0 1 1078.913174952621 620.5 L1046.6898981617333 620.5 A15.5 15.5 0 0 1 1046.6898981617333 588.5" fill="#fff" transform="matrix(1,0,0,1,0,0)" opacity="0.357142" style="transform:matrix(1, 0, 0, 1, 0, 0);opacity:0.357142;animation-play-state:paused" ></path>
<path d="M2220 619.5 L934.7963576413754 619.5 A15.5 15.5 0 0 1 934.7963576413754 651.5 L2220 651.5" fill="#fff" transform="matrix(1,0,0,1,6.616992950439453,0)" style="transform:matrix(1, 0, 0, 1, 6.61699, 0);animation-play-state:paused" ></path>
<path d="M1985.563334731394 619.5 L2020.126669462788 619.5 A15.5 15.5 0 0 1 2020.126669462788 651.5 L1985.563334731394 651.5 A15.5 15.5 0 0 1 1985.563334731394 619.5" fill="#000" transform="matrix(1,0,0,1,-0.0004967988934367895,0)" opacity="1" style="transform:matrix(1, 0, 0, 1, -0.000496799, 0);animation-play-state:paused" ></path>
<path d="M2220 650.5 L923.8920786645772 650.5 A15.5 15.5 0 0 0 923.8920786645772 682.5 L2220 682.5" fill="#fff" transform="matrix(1,0,0,1,-15.314619064331055,0)" style="transform:matrix(1, 0, 0, 1, -15.3146, 0);animation-play-state:paused" ></path>
<path d="M1054.7302109514508 650.5 L1083.33202664708 650.5 A15.5 15.5 0 0 1 1083.33202664708 682.5 L1054.7302109514508 682.5 A15.5 15.5 0 0 1 1054.7302109514508 650.5" fill="#fff" transform="matrix(1,0,0,1,0,0)" opacity="0.357143" style="transform:matrix(1, 0, 0, 1, 0, 0);opacity:0.357143;animation-play-state:paused" ></path>
<path d="M2220 681.5 L951.6451242279787 681.5 A15.5 15.5 0 0 1 951.6451242279787 713.5 L2220 713.5" fill="#fff" transform="matrix(1,0,0,1,28.71575164794922,0)" style="transform:matrix(1, 0, 0, 1, 28.7158, 0);animation-play-state:paused" ></path>
<path d="M1978.362529970905 681.5 L2005.7250599418098 681.5 A15.5 15.5 0 0 1 2005.7250599418098 713.5 L1978.362529970905 713.5 A15.5 15.5 0 0 1 1978.362529970905 681.5" fill="#000" transform="matrix(1,0,0,1,-1865.283935546875,0)" opacity="0.238095" style="transform:matrix(1, 0, 0, 1, -1865.28, 0);opacity:0.238095;animation-play-state:paused" ></path>
<path d="M2220 712.5 L931.1252372012488 712.5 A15.5 15.5 0 0 0 931.1252372012488 744.5 L2220 744.5" fill="#fff" transform="matrix(1,0,0,1,-28.87697410583496,0)" style="transform:matrix(1, 0, 0, 1, -28.877, 0);animation-play-state:paused" ></path>
<path d="M1055.6768097977447 712.5 L1082.7050150466684 712.5 A15.5 15.5 0 0 1 1082.7050150466684 744.5 L1055.6768097977447 744.5 A15.5 15.5 0 0 1 1055.6768097977447 712.5" fill="#fff" transform="matrix(1,0,0,1,0,0)" opacity="0.119048" style="transform:matrix(1, 0, 0, 1, 0, 0);opacity:0.119048;animation-play-state:paused" ></path>
<path d="M2220 743.5 L975.9384373893778 743.5 A15.5 15.5 0 0 1 975.9384373893778 775.5 L2220 775.5" fill="#fff" transform="matrix(1,0,0,1,25.61165428161621,0)" style="transform:matrix(1, 0, 0, 1, 25.6117, 0);animation-play-state:paused" ></path>
<path d="M1986.3490289831318 743.5 L2021.6980579662636 743.5 A15.5 15.5 0 0 1 2021.6980579662636 775.5 L1986.3490289831318 775.5 A15.5 15.5 0 0 1 1986.3490289831318 743.5" fill="#000" transform="matrix(1,0,0,1,0,0)" opacity="1" style="transform:matrix(1, 0, 0, 1, 0, 0);animation-play-state:paused" ></path>
<path d="M2220 774.5 L945.2694211026088 774.5 A15.5 15.5 0 0 0 945.2694211026088 806.5 L2220 806.5" fill="#fff" transform="matrix(1,0,0,1,-19.527196884155273,0)" style="transform:matrix(1, 0, 0, 1, -19.5272, 0);animation-play-state:paused" ></path>
<path d="M1042.6895708770496 774.5 L1082.447479601195 774.5 A15.5 15.5 0 0 1 1082.447479601195 806.5 L1042.6895708770496 806.5 A15.5 15.5 0 0 1 1042.6895708770496 774.5" fill="#fff" transform="matrix(1,0,0,1,0,0)" opacity="1" style="transform:matrix(1, 0, 0, 1, 0, 0);animation-play-state:paused" ></path>
<path d="M2220 805.5 L972.5309604691304 805.5 A15.5 15.5 0 0 1 972.5309604691304 837.5 L2220 837.5" fill="#fff" transform="matrix(1,0,0,1,9.32870101928711,0)" style="transform:matrix(1, 0, 0, 1, 9.3287, 0);animation-play-state:paused" ></path>
<path d="M1989.0454213284702 805.5 L2027.0908426569404 805.5 A15.5 15.5 0 0 1 2027.0908426569404 837.5 L1989.0454213284702 837.5 A15.5 15.5 0 0 1 1989.0454213284702 805.5" fill="#000" transform="matrix(1,0,0,1,-379.20947265625,0)" opacity="1" style="transform:matrix(1, 0, 0, 1, -379.209, 0);animation-play-state:paused" ></path>
<path d="M2220 836.5 L930.6592193179404 836.5 A15.5 15.5 0 0 0 930.6592193179404 868.5 L2220 868.5" fill="#fff" transform="matrix(1,0,0,1,0,0)" style="transform:matrix(1, 0, 0, 1, 0, 0);animation-play-state:paused" ></path>
<path d="M1034.043572646467 836.5 L1072.668031858391 836.5 A15.5 15.5 0 0 1 1072.668031858391 868.5 L1034.043572646467 868.5 A15.5 15.5 0 0 1 1034.043572646467 836.5" fill="#fff" transform="matrix(1,0,0,1,0,0)" opacity="0.357142" style="transform:matrix(1, 0, 0, 1, 0, 0);opacity:0.357142;animation-play-state:paused" ></path>
<path d="M2220 867.5 L968.2353530930231 867.5 A15.5 15.5 0 0 1 968.2353530930231 899.5 L2220 899.5" fill="#fff" transform="matrix(1,0,0,1,6.07933235168457,0)" style="transform:matrix(1, 0, 0, 1, 6.07933, 0);animation-play-state:paused" ></path>
<path d="M1981.4956663745088 867.5 L2011.9913327490176 867.5 A15.5 15.5 0 0 1 2011.9913327490176 899.5 L1981.4956663745088 899.5 A15.5 15.5 0 0 1 1981.4956663745088 867.5" fill="#000" transform="matrix(1,0,0,1,-1256.9310302734375,0)" opacity="0.476191" style="transform:matrix(1, 0, 0, 1, -1256.93, 0);opacity:0.476191;animation-play-state:paused" ></path>
<path d="M2220 898.5 L929.6534243325223 898.5 A15.5 15.5 0 0 0 929.6534243325223 930.5 L2220 930.5" fill="#fff" transform="matrix(1,0,0,1,-15.612516403198242,0)" style="transform:matrix(1, 0, 0, 1, -15.6125, 0);animation-play-state:paused" ></path>
<path d="M1054.938153892646 898.5 L1068.3886856733266 898.5 A15.5 15.5 0 0 1 1068.3886856733266 930.5 L1054.938153892646 930.5 A15.5 15.5 0 0 1 1054.938153892646 898.5" fill="#fff" transform="matrix(1,0,0,1,0,0)" opacity="0.833333" style="transform:matrix(1, 0, 0, 1, 0, 0);opacity:0.833333;animation-play-state:paused" ></path>
<path d="M2220 929.5 L972.5096841041286 929.5 A15.5 15.5 0 0 1 972.5096841041286 961.5 L2220 961.5" fill="#fff" transform="matrix(1,0,0,1,0,0)" style="transform:matrix(1, 0, 0, 1, 0, 0);animation-play-state:paused" ></path>
<path d="M1973.9847600222809 929.5 L1996.9695200445617 929.5 A15.5 15.5 0 0 1 1996.9695200445617 961.5 L1973.9847600222809 961.5 A15.5 15.5 0 0 1 1973.9847600222809 929.5" fill="#000" transform="matrix(1,0,0,1,-1060.4713134765625,0)" opacity="0.714285" style="transform:matrix(1, 0, 0, 1, -1060.47, 0);opacity:0.714285;animation-play-state:paused" ></path>
<path d="M2220 960.5 L904.3023280346634 960.5 A15.5 15.5 0 0 0 904.3023280346634 992.5 L2220 992.5" fill="#fff" transform="matrix(1,0,0,1,-1.5873461961746216,0)" style="transform:matrix(1, 0, 0, 1, -1.58735, 0);animation-play-state:paused" ></path>
<path d="M1045.6933931086555 960.5 L1079.864260546762 960.5 A15.5 15.5 0 0 1 1079.864260546762 992.5 L1045.6933931086555 992.5 A15.5 15.5 0 0 1 1045.6933931086555 960.5" fill="#fff" transform="matrix(1,0,0,1,0,0)" opacity="0.357142" style="transform:matrix(1, 0, 0, 1, 0, 0);opacity:0.357142;animation-play-state:paused" ></path>
<path d="M2220 991.5 L948.4667647221414 991.5 A15.5 15.5 0 0 1 948.4667647221414 1023.5 L2220 1023.5" fill="#fff" transform="matrix(1,0,0,1,49.1387825012207,0)" style="transform:matrix(1, 0, 0, 1, 49.1388, 0);animation-play-state:paused" ></path>
<path d="M1966.8288460036904 991.5 L1982.6576920073808 991.5 A15.5 15.5 0 0 1 1982.6576920073808 1023.5 L1966.8288460036904 1023.5 A15.5 15.5 0 0 1 1966.8288460036904 991.5" fill="#000" transform="matrix(1,0,0,1,-735.8947143554688,0)" opacity="0.952381" style="transform:matrix(1, 0, 0, 1, -735.895, 0);opacity:0.952381;animation-play-state:paused" ></path>
<path d="M2220 1022.5 L917.1305730193891 1022.5 A15.5 15.5 0 0 0 917.1305730193891 1054.5 L2220 1054.5" fill="#fff" transform="matrix(1,0,0,1,-12.866257667541504,0)" style="transform:matrix(1, 0, 0, 1, -12.8663, 0);animation-play-state:paused" ></path>
<path d="M1034.0057172916383 1022.5 L1049.5818540818395 1022.5 A15.5 15.5 0 0 1 1049.5818540818395 1054.5 L1034.0057172916383 1054.5 A15.5 15.5 0 0 1 1034.0057172916383 1022.5" fill="#fff" transform="matrix(1,0,0,1,0,0)" opacity="0.714286" style="transform:matrix(1, 0, 0, 1, 0, 0);opacity:0.714286;animation-play-state:paused" ></path>
<path d="M2220 1053.5 L972.6516268221991 1053.5 A15.5 15.5 0 0 1 972.6516268221991 1085.5 L2220 1085.5" fill="#fff" transform="matrix(1,0,0,1,20.08077621459961,0)" style="transform:matrix(1, 0, 0, 1, 20.0808, 0);animation-play-state:paused" ></path>
<path d="M1990.8187844943902 1053.5 L2030.6375689887805 1053.5 A15.5 15.5 0 0 1 2030.6375689887805 1085.5 L1990.8187844943902 1085.5 A15.5 15.5 0 0 1 1990.8187844943902 1053.5" fill="#000" transform="matrix(1,0,0,1,-988.4461669921875,0)" opacity="0.476191" style="transform:matrix(1, 0, 0, 1, -988.446, 0);opacity:0.476191;animation-play-state:paused" ></path>
<path d="M2220 1084.5 L940.0911213597915 1084.5 A15.5 15.5 0 0 0 940.0911213597915 1116.5 L2220 1116.5" fill="#fff" transform="matrix(1,0,0,1,-20.09913444519043,0)" style="transform:matrix(1, 0, 0, 1, -20.0991, 0);animation-play-state:paused" ></path>
<path d="M994.5132280378052 1084.5 L1015.9614488397215 1084.5 A15.5 15.5 0 0 1 1015.9614488397215 1116.5 L994.5132280378052 1116.5 A15.5 15.5 0 0 1 994.5132280378052 1084.5" fill="#fff" transform="matrix(1,0,0,1,0,0)" opacity="0.238095" style="transform:matrix(1, 0, 0, 1, 0, 0);opacity:0.238095;animation-play-state:paused" ></path></g></mask></defs>


<rect x="0" y="0" width="1920" height="1089" fill="url(#ldbk-photon-wipfj5wjtzm-lg)" mask="url(#ldbk-photon-wipfj5wjtzm-mask)" style="animation-play-state:paused" ></rect></g></svg>