<?xml version="1.0" encoding="utf-8"?><svg xmlns="http://www.w3.org/2000/svg" xmlns:xlink="http://www.w3.org/1999/xlink" width="1920" height="1089" preserveAspectRatio="xMidYMid" viewBox="0 0 1920 1089" style="z-index:1;margin-right:-2px;display:block;background-repeat-y:initial;background-repeat-x:initial;background-color:rgb(28, 36, 49);animation-play-state:paused" ><g transform="translate(960,544.5) scale(1,1) translate(-960,-544.5)" style="transform:matrix(1, 0, 0, 1, 0, 0);animation-play-state:paused" ><defs style="animation-play-state:paused" ><path id="path-ma8zqfvkk6o-1" d="M-35 -35L35 -35L35 35L-35 35Z" fill="none" stroke="inherit" stroke-width="4.333333333333334" transform="scale(0.3)" style="transform:matrix(0.3, 0, 0, 0.3, 0, 0);animation-play-state:paused" ></path>

  
<path id="path-ma8zqfvkk6o-2" d="M0 -37A37 37 0 0 1 0 37A37 37 0 0 1 0 -37" fill="none" stroke="inherit" stroke-width="4.333333333333334" transform="scale(0.3)" style="transform:matrix(0.3, 0, 0, 0.3, 0, 0);animation-play-state:paused" ></path>

  
<path id="path-ma8zqfvkk6o-3" d="M0 -34.641L40 34.641L-40 34.641Z" fill="none" stroke="inherit" stroke-width="4.333333333333334" transform="scale(0.3)" style="transform:matrix(0.3, 0, 0, 0.3, 0, 0);animation-play-state:paused" ></path></defs>
<path id="path0" d="M 57.418946098160475 133.0218261738253
c 0 60.03657829328367 -14.689801071760895 17.244549084241054 -31.934350156001948 17.244549084241054
S -6.449754213843423 193.05840446710897 -6.449754213843423 133.0218261738253
s 14.689801071760895 -17.244549084241054 31.934350156001948 -17.244549084241054
S 57.418946098160475 72.98524788054164 57.418946098160475 133.0218261738253
z" fill="none" stroke="none" style="animation-play-state:paused" ></path>


<use xlink:href="#path-ma8zqfvkk6o-1" x="0" y="0" stroke="#220b09" transform="translate(45.93741989135742 162.86932373046875)" style="animation-play-state:paused" ></use>
<path id="path1" d="M 252.0360054202318 415.4379877505121
c 0 61.74590950456561 -15.10804168728733 17.73552719811991 -32.84356888540724 17.73552719811991
S 186.3488676494173 477.1838972550777 186.3488676494173 415.4379877505121
s 15.10804168728733 -17.73552719811991 32.84356888540724 -17.73552719811991
S 252.0360054202318 353.6920782459465 252.0360054202318 415.4379877505121
z" fill="none" stroke="none" style="animation-play-state:paused" ></path>


<use xlink:href="#path-ma8zqfvkk6o-2" x="0" y="0" stroke="#220b09" transform="translate(251.9962158203125 420.6402587890625)" style="animation-play-state:paused" ></use>
<path id="path2" d="M 329.6147205489285 1012.6603821371829
c 0 25.725063075643046 -6.294430327019042 7.38911386215279 -13.683544189171833 7.38911386215279
S 302.2476321705849 1038.385445212826 302.2476321705849 1012.6603821371829
s 6.294430327019042 -7.38911386215279 13.683544189171833 -7.38911386215279
S 329.6147205489285 986.9353190615399 329.6147205489285 1012.6603821371829
z" fill="none" stroke="none" style="animation-play-state:paused" ></path>


<use xlink:href="#path-ma8zqfvkk6o-3" x="0" y="0" stroke="#d34c31" transform="translate(313.6352844238281 1020.5885009765625)" style="animation-play-state:paused" ></use>
<path id="path3" d="M 362.9223571432428 769.7208536156136
c 0 22.97991607052681 -5.622745421511878 6.600614190470467 -12.223359611982346 6.600614190470467
S 338.4756379192781 792.7007696861403 338.4756379192781 769.7208536156136
s 5.622745421511878 -6.600614190470467 12.223359611982346 -6.600614190470467
S 362.9223571432428 746.7409375450868 362.9223571432428 769.7208536156136
z" fill="none" stroke="none" style="animation-play-state:paused" ></path>


<use xlink:href="#path-ma8zqfvkk6o-1" x="0" y="0" stroke="#d34c31" transform="translate(354.3198547363281 777.7105712890625)" style="animation-play-state:paused" ></use>
<path id="path4" d="M 477.75811189771997 829.2800793986513
c 0 55.658057863670216 -13.61846096664271 15.986888960841444 -29.605349927484156 15.986888960841444
S 418.54741204275166 884.9381372623216 418.54741204275166 829.2800793986513
s 13.61846096664271 -15.986888960841444 29.605349927484156 -15.986888960841444
S 477.75811189771997 773.6220215349811 477.75811189771997 829.2800793986513
z" fill="none" stroke="none" style="animation-play-state:paused" ></path>


<use xlink:href="#path-ma8zqfvkk6o-1" x="0" y="0" stroke="#220b09" transform="translate(476.8044738769531 848.8959350585938)" style="animation-play-state:paused" ></use>
<path id="path5" d="M 622.7995422106419 432.22962875545016
c 0 31.359787942803337 -7.673139603026347 9.007598664422236 -16.680738267448582 9.007598664422236
S 589.4380656757448 463.5894166982535 589.4380656757448 432.22962875545016
s 7.673139603026347 -9.007598664422236 16.680738267448582 -9.007598664422236
S 622.7995422106419 400.8698408126468 622.7995422106419 432.22962875545016
z" fill="none" stroke="none" style="animation-play-state:paused" ></path>


<use xlink:href="#path-ma8zqfvkk6o-2" x="0" y="0" stroke="#e88432" transform="translate(614.8792114257812 446.24615478515625)" style="animation-play-state:paused" ></use>
<path id="path6" d="M 688.1734701044824 219.96078236864793
c 0 33.82107671446714 -8.275369834390894 9.714564588198009 -17.989934422588902 9.714564588198009
S 652.1936012593045 253.78185908311508 652.1936012593045 219.96078236864793
s 8.275369834390894 -9.714564588198009 17.989934422588902 -9.714564588198009
S 688.1734701044824 186.13970565418077 688.1734701044824 219.96078236864793
z" fill="none" stroke="none" style="animation-play-state:paused" ></path>


<use xlink:href="#path-ma8zqfvkk6o-1" x="0" y="0" stroke="#e88432" transform="translate(674.85107421875 231.2803497314453)" style="animation-play-state:paused" ></use>
<path id="path7" d="M 849.8328341541744 660.3159423406432
c 0 57.748800582071134 -14.130025674336553 16.58742144378639 -30.71744711812294 16.58742144378639
S 788.3979399179286 718.0647429227143 788.3979399179286 660.3159423406432
s 14.130025674336553 -16.58742144378639 30.71744711812294 -16.58742144378639
S 849.8328341541744 602.5671417585721 849.8328341541744 660.3159423406432
z" fill="none" stroke="none" style="animation-play-state:paused" ></path>


<use xlink:href="#path-ma8zqfvkk6o-3" x="0" y="0" stroke="#d34c31" transform="translate(849.7972412109375 665.0682373046875)" style="animation-play-state:paused" ></use>
<path id="path8" d="M 986.8634022451344 646.2237212337141
c 0 51.311151016714255 -12.554856099834337 14.738309334588138 -27.293165434422477 14.738309334588138
S 932.2770713762894 697.5348722504283 932.2770713762894 646.2237212337141
s 12.554856099834337 -14.738309334588138 27.293165434422477 -14.738309334588138
S 986.8634022451344 594.9125702169998 986.8634022451344 646.2237212337141
z" fill="none" stroke="none" style="animation-play-state:paused" ></path>


<use xlink:href="#path-ma8zqfvkk6o-2" x="0" y="0" stroke="#d34c31" transform="translate(954.2122802734375 662.4097900390625)" style="animation-play-state:paused" ></use>
<path id="path9" d="M 1040.96542607674 471.28640249292675
c 0 26.541683751508195 -6.494241768986047 7.623675120114057 -14.117916889100105 7.623675120114057
S 1012.7295922985397 497.8280862444349 1012.7295922985397 471.28640249292675
s 6.494241768986047 -7.623675120114057 14.117916889100105 -7.623675120114057
S 1040.96542607674 444.7447187414186 1040.96542607674 471.28640249292675
z" fill="none" stroke="none" style="animation-play-state:paused" ></path>


<use xlink:href="#path-ma8zqfvkk6o-2" x="0" y="0" stroke="#d34c31" transform="translate(1040.8116455078125 477.3880920410156)" style="animation-play-state:paused" ></use>
<path id="path10" d="M 1186.4057730887591 896.310023852065
c 0 34.047736566731594 -8.330829159944964 9.779669013848437 -18.110498173793403 9.779669013848437
S 1150.1847767411725 930.3577604187966 1150.1847767411725 896.310023852065
s 8.330829159944964 -9.779669013848437 18.110498173793403 -9.779669013848437
S 1186.4057730887591 862.2622872853334 1186.4057730887591 896.310023852065
z" fill="none" stroke="none" style="animation-play-state:paused" ></path>


<use xlink:href="#path-ma8zqfvkk6o-1" x="0" y="0" stroke="#d34c31" transform="translate(1157.6593017578125 912.482177734375)" style="animation-play-state:paused" ></use>
<path id="path11" d="M 1262.8245669105129 693.9181204214764
c 0 29.666260851181956 -7.258765952948775 8.521160031722477 -15.779925984671252 8.521160031722477
S 1231.2647149411703 723.5843812726583 1231.2647149411703 693.9181204214764
s 7.258765952948775 -8.521160031722477 15.779925984671252 -8.521160031722477
S 1262.8245669105129 664.2518595702944 1262.8245669105129 693.9181204214764
z" fill="none" stroke="none" style="animation-play-state:paused" ></path>


<use xlink:href="#path-ma8zqfvkk6o-1" x="0" y="0" stroke="#e88432" transform="translate(1248.1278076171875 702.5491943359375)" style="animation-play-state:paused" ></use>
<path id="path12" d="M 1384.731883694183 112.18725369253
c 0 58.47906028515033 -14.308706239983591 16.79717689041552 -31.105883130399114 16.79717689041552
S 1322.5201174333845 170.66631397768035 1322.5201174333845 112.18725369253
s 14.308706239983591 -16.79717689041552 31.105883130399114 -16.79717689041552
S 1384.731883694183 53.708193407379675 1384.731883694183 112.18725369253
z" fill="none" stroke="none" style="animation-play-state:paused" ></path>


<use xlink:href="#path-ma8zqfvkk6o-2" x="0" y="0" stroke="#220b09" transform="translate(1351.201904296875 129.26255798339844)" style="animation-play-state:paused" ></use>
<path id="path13" d="M 1499.632258517786 45.229923456213434
c 0 51.810975821078344 -12.677153658348955 14.881876033713992 -27.559029692062946 14.881876033713992
S 1444.5141991336602 97.04089927729177 1444.5141991336602 45.229923456213434
s 12.677153658348955 -14.881876033713992 27.559029692062946 -14.881876033713992
S 1499.632258517786 -6.5810523648649095 1499.632258517786 45.229923456213434
z" fill="none" stroke="none" style="animation-play-state:paused" ></path>


<use xlink:href="#path-ma8zqfvkk6o-3" x="0" y="0" stroke="#d34c31" transform="translate(1485.4583740234375 67.44242858886719)" style="animation-play-state:paused" ></use>
<path id="path14" d="M 1546.1103987283188 938.9028190671808
c 0 42.24974810926535 -10.337704324607477 12.135565946278346 -22.473270270885823 12.135565946278346
S 1501.163858186547 981.1525671764462 1501.163858186547 938.9028190671808
s 10.337704324607477 -12.135565946278346 22.473270270885823 -12.135565946278346
S 1546.1103987283188 896.6530709579154 1546.1103987283188 938.9028190671808
z" fill="none" stroke="none" style="animation-play-state:paused" ></path>


<use xlink:href="#path-ma8zqfvkk6o-3" x="0" y="0" stroke="#220b09" transform="translate(1529.578857421875 953.1146850585938)" style="animation-play-state:paused" ></use>
<path id="path15" d="M 1657.139722489271 464.2851336653974
c 0 65.24657119344893 -15.964586568609844 18.74103640662895 -34.705622975238796 18.74103640662895
S 1587.7284765387933 529.5317048588463 1587.7284765387933 464.2851336653974
s 15.964586568609844 -18.74103640662895 34.705622975238796 -18.74103640662895
S 1657.139722489271 399.03856247194847 1657.139722489271 464.2851336653974
z" fill="none" stroke="none" style="animation-play-state:paused" ></path>


<use xlink:href="#path-ma8zqfvkk6o-1" x="0" y="0" stroke="#e88432" transform="translate(1656.2540283203125 485.3963317871094)" style="animation-play-state:paused" ></use>
<path id="path16" d="M 1753.5712652614702 921.4767502907252
c 0 55.204147108786756 -13.5073976968308 15.856510339757898 -29.3639080365887 15.856510339757898
S 1694.8434491882927 976.680897399512 1694.8434491882927 921.4767502907252
s 13.5073976968308 -15.856510339757898 29.3639080365887 -15.856510339757898
S 1753.5712652614702 866.2726031819385 1753.5712652614702 921.4767502907252
z" fill="none" stroke="none" style="animation-play-state:paused" ></path>


<use xlink:href="#path-ma8zqfvkk6o-3" x="0" y="0" stroke="#e88432" transform="translate(1745.0701904296875 950.2313232421875)" style="animation-play-state:paused" ></use>
<path id="path17" d="M 1875.7810260177619 663.6797785045961
c 0 61.333910422217414 -15.007233401180855 17.617187036168833 -32.624420437349684 17.617187036168833
S 1810.5321851430624 725.0136889268135 1810.5321851430624 663.6797785045961
s 15.007233401180855 -17.617187036168833 32.624420437349684 -17.617187036168833
S 1875.7810260177619 602.3458680823787 1875.7810260177619 663.6797785045961
z" fill="none" stroke="none" style="animation-play-state:paused" ></path>


<use xlink:href="#path-ma8zqfvkk6o-3" x="0" y="0" stroke="#220b09" transform="translate(1875.7720947265625 666.1235961914062)" style="animation-play-state:paused" ></use></g></svg>